<svg xmlns="http://www.w3.org/2000/svg" xmlns:xlink="http://www.w3.org/1999/xlink" viewBox="0 0 448.16 404.65"><defs><style>.cls-1{fill:url(#linear-gradient);}</style><linearGradient id="linear-gradient" x1="-3.09" y1="132.3" x2="435.92" y2="263.26" gradientUnits="userSpaceOnUse"><stop offset="0.09" stop-color="#03e1ff"/><stop offset="0.5" stop-color="#00ffa3"/><stop offset="0.93" stop-color="#dc1fff"/></linearGradient></defs><g id="Layer_2" data-name="Layer 2"><g id="Layer_1-2" data-name="Layer 1"><path class="cls-1" d="M269.94,9.32l-4.86,45.79h.15c1.25,0,4.57,1.28,6.1,1.28h.23c-.86,5.15-2.07,10.32-5,22.95,3.25-.24,6.28-.51,9.76-.77.23,6.92-2.82,12.18-6.52,18.19,1,0,1.91,0,2.84,0h2.27c1,0,2,0,3.17,0-.19,10.08-2.75,20.14-9.48,27.28l11.29,3.37c-1.62,11-8.11,17.41-13.7,25.66l7.25,2.16c-.94,11.16-9.15,17.47-15.49,25.93,2.33.95,4.5,1.87,6.85,2.83-.53,7.78-6.95,11.53-11.19,16.71.47.11,2.73.75,3.2.85-.3,2.44-1.67,4.76-2.82,6.69-3,5.06-6.73,9.71-10.15,14.53-.6.86-1.11,1.78-1.79,2.88l5.06,3c-3.84,8.68-9.7,15.76-16.8,22.43l5.21,2.66c-4.87,6.06-9.49,11.67-13.92,17.43-1,1.27,2.76,1.28,2.1,2.81-1.59,3.67-6.38,6.56-8.51,9.89s-1.42,2.83-2.7,6.89a15.7,15.7,0,0,1-2.49,4.35l.15-.16c1.34-1.39,3.46-2,5.12-3.11a9.13,9.13,0,0,0,1.93-2.16c2.91-3.82,5.65-7.79,8.74-11.46a3.36,3.36,0,0,1,2.56-1.39A5.22,5.22,0,0,1,232.1,279c.75-1,1.28-1.84,1.92-2.57,3.87-4.39,7.55-9,11.76-13a5.23,5.23,0,0,1,3.64-1,22,22,0,0,1,2.71.2c3.43-3.4,6.63-7,10.27-10.16,3.28-2.86,4.3-3.74,4.91-3.74s.81.85,2.41,1.53a.59.59,0,0,0,.23,0c.72,0,1.95-1,2.69-1.71,3.93-3.85,7.95-8.07,13.58-8.74l1.52,4.13c5.87-6.87,11.84-13.48,20.73-16.69.79,2.13,1.36,3.69,2.24,6.08,4.86-7.33,11.15-13.7,20.13-16.31.93,3.24,1.55,6,2.48,9.23,6.26-5.52,12.16-10.66,20.8-11.5-.15,3.79-.28,7.09-.43,10.94a38.78,38.78,0,0,1,24.18-9.47c-.12,3-.22,5.33-.29,7.14l21.15-4.31c.18,2.54.29,4,.39,5.33a237.44,237.44,0,0,1,39.71-3.52l-33.19,19.76c.67.71,1.57,4.09,2.41,5-3.89,2-8,3.8-18,8.16,1.8,2.06,3.48,4,5.4,6.18-4.53,3.63-9.65,4.24-15.54,4.78,1.36,1.93,2.53,3.52,4,5.63-6.2,4.46-13.12,7.53-20.8,7.53-.82,0-1.65,0-2.49-.1,1.24,3.35,2.26,6.14,3.42,9.27-7.68,4.24-15.6,3.25-23.87,3.61.69,1.87,1.34,3.62,2.2,6-3.91,2.51-8.18,3.11-12.63,3.11-4.06,0-8.27-.5-12.5-.5.54,2,1.08,3.94,1.62,6a12.25,12.25,0,0,1-6.94,1.93c-3.3,0-6.63-.89-9.91-1,.17.36.87,2.21,1,2.57a15.11,15.11,0,0,1-5.91,1.48c-4.92.51-9.9.35-14.86.49-.88,0-1.75.15-2.83.24.18,1.64.34,3,.55,4.89a48.56,48.56,0,0,1-11,1.2,73.28,73.28,0,0,1-12.55-1.2c.29,1.64.48,2.73.84,4.83-6.51-.22-12.61-.5-18.7-.58h0c-1.31,0,.55,2.5-.8,2.82a8.3,8.3,0,0,1-1.89.2c-2.69,0-5.78-1-8.36-1-.22,0-.45,0-.66,0a9.2,9.2,0,0,0-3.52.68c1.27-.11,2.53-.21,3.8-.25h.12c1.67,0,2.28,1.25,2,3.12.77-.07,1.36-.17,1.95-.18,2.19,0,4.39-.11,6.58-.11,1.36,0,2.71,0,4.06.14,1.13.08,2.16,1.4,3,2.52,2.92.16,5.85.15,8.75.51,5.2.63,3.28.39,4,2.4.14.41,1.24.6,1.94.64,3.33.21,6.87.31,9.46,2.58l-1.24,2.36c1,0,2-.05,3.06-.05,4.43,0,8.77.42,12.89,2.62L282,342.6a32.51,32.51,0,0,1,4.82-.38,19.89,19.89,0,0,1,10.71,2.83c-1.08,1.74-2.08,3.15-3.15,4.87,5,.58,9.75,1.16,13.63,4.71l-5.1,4.25A23.58,23.58,0,0,1,317,365.94l-3.34,2.77,10.54,7.79-2.24,2.34a143.91,143.91,0,0,1,17.72,16.49l-22.4-6.94c-.05.59-1.2,2.37-1.27,3.11-2.49-.94-5-2.06-11-4.79-.2,1.65-.38,3.18-.59,5-3.48-.57-5.84-2.63-8.47-5.07-.32,1.4-.56,2.58-.91,4.1-5-1.09-9.63-3.27-12.81-7.48l-2.8,5.31c-5-1.74-7.8-5.72-11.32-9.3-.57,1.07-1.1,2.07-1.8,3.41-5.2-1.42-7.79-6.28-11.39-10.28-.7,1.08-1.33,2.09-2,3.17-3.84-1-5.08-4.61-7.25-7.24-.1.22-.64,1.29-.74,1.51a9.12,9.12,0,0,1-3.07-2.06c-2.23-2-4.18-4.32-6.26-6.5-.37-.39-.78-.74-1.26-1.18l-2,2.23a35.24,35.24,0,0,1-9.55-10.6c-.63.79-1,1.32-1.84,2.34-2.55-3-4.9-5.89-7.34-8.67a.31.31,0,0,0-.22-.13c-.37,0-.69,1-1.15,1a.36.36,0,0,1-.23-.08c-1.68-1.15-2.65-3.83-4.1-5.22s-1.27-1-3.17-2a9,9,0,0,1-2.28-2.09l-.53,1.77c.28.19.57.38.84.58.46.34.55,1.18.59,1.87,1.21.85,2.47,1.63,3.63,2.56,2.06,1.66,1.3,1,1.06,2.09-.05.21.37.59.66.79,1.38,1,2.87,2,3.38,3.64l-1.17.68c2.4,1.4,4.71,2.85,6.16,5.36l-1.71,1a11.29,11.29,0,0,1,6,5.2c-.92.46-1.73.8-2.65,1.25,2,1.59,3.88,3.1,4.6,5.66l-3.33.47a11.92,11.92,0,0,1,4.17,6.79l-2.18.3c.8,2,1.6,4,2.45,6.16l-1.59.41a72.23,72.23,0,0,1,3.2,11.81l-7.76-9c-.18.24-1.15.69-1.38,1-.82-1.06-1.58-2.21-3.43-5-.53.66-1,1.27-1.58,2-1.34-1.17-1.8-2.69-2.28-4.44-.51.52-.93,1-1.49,1.52a10.61,10.61,0,0,1-3.5-6.64L202,376.18c-1.7-2.09-1.82-4.54-2.38-7l-1.68,1c-1.85-2-1.67-4.77-2.15-7.45l-1.72.81c-1.37-1.46-.95-3.33-1.18-5l-.72.45a4.54,4.54,0,0,1-.77-1.71c-.42-1.45-.64-3-1-4.46,0-.27-.14-.52-.23-.84l-1.44.43a17.91,17.91,0,0,1-1.27-7.11l-1.42.52c-.28-2-.53-3.84-.83-5.69,0-.09-.07-.13-.14-.13H185c-4.24,14.95-9.79,33.25-12.37,36.4a66.6,66.6,0,0,1-10.3,9.75c6.89-12.36,12.95-34.57,16.78-50.77a3,3,0,0,1-.41.28c-1,.5-.87.29-1.63,1s-1.27,2-2.13,2.59l-.12,0c-.24,0-.39-.51-.58-.51a.16.16,0,0,0-.11.07c-1.26,1.37-2.48,2.79-3.81,4.29l-.9-1.2a18,18,0,0,1-4.95,5.25l-1-1.16c-.25.22-.46.39-.65.58-1.07,1.08-2.09,2.23-3.24,3.22a4.55,4.55,0,0,1-1.58,1c0-.12-.31-.66-.35-.78-1.13,1.31-1.8,3.1-3.76,3.58l-1-1.63c-1.87,2-3.23,4.4-5.88,5.06-.34-.68-.59-1.2-.87-1.74-1.82,1.76-3.27,3.74-5.83,4.56L139,357.08a10.54,10.54,0,0,1-6.56,3.64c-.16-.78-.27-1.38-.41-2.09a8.24,8.24,0,0,1-4.34,2.47c-.09-.9-.16-1.67-.25-2.51-3.07,1.31-4.33,1.84-5.6,2.29,0-.38-.59-1.29-.61-1.59l-11.41,3.25a73.38,73.38,0,0,1,9.16-8.13l-1.11-1.21,5.42-3.81L121.62,348a11.87,11.87,0,0,1,7.21-3.41c-.9-.77-1.66-1.44-2.53-2.21,2-1.75,4.4-2,7-2.22-.53-.88-1-1.61-1.54-2.49a9.9,9.9,0,0,1,5.13-1.32,15.9,15.9,0,0,1,2.75.26l-.88-1.78a12.57,12.57,0,0,1,5.84-1.18c.75,0,1.5,0,2.25.07l-.6-1.21c1.34-1.12,3.13-1.13,4.81-1.19.36,0,.92-.1,1-.3.38-1-.6-.91,2-1.17,1.47-.15,3-.11,4.43-.15.42-.56.95-1.22,1.52-1.25.41,0,.81,0,1.22,0,.74,0,1.49,0,2.24.07l-1.86-.56.13-.45-.88.22a4.31,4.31,0,0,1-1,.11c-.88,0-1.79-.18-2.68-.18H157a6,6,0,0,0-1.81.52c-2.93,1.1-5.81,2.33-8.78,3.29a3,3,0,0,1-.89.15c-1.25,0-2-1.05-2.25-2.73-.76.3-1.34.57-1.95.75-3.65,1.07-7.26,2.32-11,3.08a2.2,2.2,0,0,1-.36,0c-1.12,0-2.39-.95-3.43-1.78-3.05.68-6.07,1.55-9.17,2a31.76,31.76,0,0,1-3.48.46c-1,0-.46-.56-1.31-1.78-.12-.18-.47-.25-.87-.25a6.81,6.81,0,0,0-1.31.16,30.89,30.89,0,0,1-6.36,1,9.5,9.5,0,0,1-4.14-.86c.18-.88.35-1.68.59-2.8-4.15,1.29-8.29,2.49-12.59,2.49a21.49,21.49,0,0,1-4.6-.49c.31-1.44.53-2.5.88-4.12a27.74,27.74,0,0,1-11.34,2.75,19.52,19.52,0,0,1-5.39-.75c.61-2.1,1.23-3.84,1.83-5.94a48.56,48.56,0,0,1-7.72.84,16.68,16.68,0,0,1-7.7-1.71l4-5.87a28.17,28.17,0,0,1-3.93.28,25.31,25.31,0,0,1-12.65-3.44L43.9,309l-13.13-5c.77-1.46,1.23-2.33,1.63-3.07A154.3,154.3,0,0,1,9.32,289.2l25.11.62c-.12-.62.55-2.79.4-3.58,2.84.24,5.72.68,12.71,1.73-.27-1.76-.54-3.38-.83-5.27a12.28,12.28,0,0,1,1.34-.07c3.15,0,5.86,1.29,8.87,2.82-.08-1.53-.17-2.81-.26-4.49.71,0,1.41-.06,2.11-.06a21.39,21.39,0,0,1,13.28,4l1.33-6.29c5.69.33,9.71,3.62,14.38,6.28l.86-4h.1c5.72,0,9.78,4.21,14.63,7.27.41-1.31.76-2.54,1.18-3.86h.11c4.18,0,6.49,3.28,9.47,5.34,0-.26.29-1.51.32-1.77a9.7,9.7,0,0,1,3.76,1.23c2.89,1.42,5.58,3.23,8.35,4.88.49.29,1,.52,1.65.84.46-1,.86-1.78,1.38-2.88a37.84,37.84,0,0,1,12.94,8.14c.27-.64.48-1.15.73-1.78a12.74,12.74,0,0,1-4.19-2.27c-1-.95,1.84-2.23.67-2.87-5.36-2.91-10.81-5.65-16.6-8.64l3.09-3.8c-7.71-2.71-14.61-6.15-20.5-11.5l2.87-4c-.89-.62-1.59-1.15-2.35-1.6-4.26-2.55-8.68-4.85-12.72-7.7a15,15,0,0,1-4.43-4.18c.32-.24,1.84-1.5,2.16-1.73-5-2.54-11.21-3.24-14.26-9,1.48-1.53,2.88-2.91,4.35-4.43-7.74-4.34-16.47-6.73-20.64-14.57l4.83-4.12c-7-4.36-14.43-7.37-19-14.83L54,196.63c-7.94-3.59-13.11-10.21-16.68-17.87,2.33-1.11,4.13-1.93,6.26-2.95-4.88-3.35-9-6.39-11.22-11.77l7.73-2.75c-6.56-8.68-9.26-12.25-11.67-15.9,1.17-.38,3.61-2.88,4.54-3.17L13.67,108.74a238.1,238.1,0,0,1,32.92,22.5l2.95-4.45L65.87,140.9l3.24-6.38a38.83,38.83,0,0,1,16.46,20.09c1.75-3.44,3.25-6.38,5-9.75,7.12,5,9.75,12.33,12.51,20.2,2.39-2.35,4.28-4.47,6.68-6.83,6.55,6.66,8.92,15.3,9.58,24.06l4.93-4.2c6.18,7.15,8.15,15.83,9.91,24.7l3.35-2.86c4.58,3.34,6,9,7.57,14.27.32,1.11,1,2.8,1.73,2.88l.62,0a14.53,14.53,0,0,0,1.91-.27c.72,0,1,.88,2.77,5.74,1.63,4.54,2.67,9.25,4,13.89,2.1.87,4.59,2,5.13,3.83,1.7,5.58,2.67,11.37,3.9,17.09.2,1,.26,1.93.42,3.19a7.39,7.39,0,0,1,2.53-.51,3.09,3.09,0,0,1,3.25,2.86c.9,4.71,1.35,9.51,2,14.27A9.41,9.41,0,0,0,174,280c.89,1.78,2.45,3.35,2.94,5.21,1.23,4.61,2.35,9.25,3.41,13.9l.18.06c-1.23-6.21-2.34-12.47-3.33-18.7-.36-2.27.58-4.73.69-7.11a10.7,10.7,0,0,0-.68-3.38c-1.57-5.51-3.39-11-4.69-16.53-.79-3.38,1.4-5.1,5.17-5.35-.43-1.45-.84-2.55-1.07-3.68-1.43-6.83-3.17-13.62-4-20.52-.27-2.21,1.88-4.7,3.74-6.66-.8-5.69-1.93-11.33-2.35-17.06-.75-10.26-.48-6.49,3.13-8.58.74-.43.69-2.66.51-4-.87-6.5-2.2-12.73,1.39-19.29l5,1.5c-2.34-10.61-4.56-20.43-1.35-30.92l7.4,2.21c-3.22-10.87-5-20.74-1.08-31.17,3.75,1.42,6.93,2.5,10.67,3.91-.79-9.91-1.48-19.21,3.89-28L213.71,94A46.2,46.2,0,0,1,222,64.18c2.8,2.28,4.93,4,6.61,5.39l11-23.27,5.36,3.44a282.63,282.63,0,0,1,25-40.42M438.83,220.88h0M270,0a9.32,9.32,0,0,0-7.54,3.83A306.84,306.84,0,0,0,241,37.1a9,9,0,0,0-1.46-.12,9.45,9.45,0,0,0-2.58.36,9.33,9.33,0,0,0-5.85,5l-6.17,13a9.27,9.27,0,0,0-3-.5,9.15,9.15,0,0,0-1.38.1,9.34,9.34,0,0,0-6.37,4A58.19,58.19,0,0,0,206,76.8a9.2,9.2,0,0,0-2.44-.33,9.61,9.61,0,0,0-1.6.14A9.33,9.33,0,0,0,195.61,81a40.62,40.62,0,0,0-5.71,19.7,8.77,8.77,0,0,0-.88,0,9.35,9.35,0,0,0-8.73,6,47,47,0,0,0-2.16,24.13,9.26,9.26,0,0,0-4.35,5.4c-2.72,8.9-2.29,17.19-1,25.17a9.5,9.5,0,0,0-2,2.49c-4.4,8-3.74,15.59-2.89,21.83a10.83,10.83,0,0,0-3.52,6.85c-.22,1.85-.08,3.74.26,8.32.31,4.33,1,8.45,1.61,12.43.06.41.13.82.19,1.22a15.1,15.1,0,0,0-3.15,10.57c.21,1.68.46,3.35.74,5L164,230l-.12-.44c-.87-3.28-1.77-6.68-3-10.13l0-.09c-1-2.72-1.51-4.22-2.08-5.43a10.61,10.61,0,0,0-5.75-5.69c-1.62-5.25-4.11-11.52-10-15.83a9.47,9.47,0,0,0-1.9-1.08c-1.9-6.84-4.67-13.39-9.8-19.33a9.3,9.3,0,0,0-4.9-3,40.59,40.59,0,0,0-10-17.33,9.28,9.28,0,0,0-6.57-2.78h-.07a9.45,9.45,0,0,0-3.09.52,34.75,34.75,0,0,0-10.77-12.22,9.32,9.32,0,0,0-5.33-1.67,9.39,9.39,0,0,0-4.63,1.23A50.79,50.79,0,0,0,74.1,126.64a9.38,9.38,0,0,0-7.46-1.11,9.25,9.25,0,0,0-2.79,1.3l-8.22-7.1a9.31,9.31,0,0,0-6.09-2.26,9,9,0,0,0-1.27.08,9.33,9.33,0,0,0-2.86.88,261.66,261.66,0,0,0-27.07-17.76A9.33,9.33,0,0,0,5.59,113.4l15.28,26.51a9.76,9.76,0,0,0-1.25,2.37,9.3,9.3,0,0,0,1,8.23c1.41,2.15,2.86,4.2,5,7.07a9.16,9.16,0,0,0-1.78,2.64,9.33,9.33,0,0,0-.14,7.31,27.85,27.85,0,0,0,4.89,7.92,9.31,9.31,0,0,0,.26,7.24A50.16,50.16,0,0,0,39,197.46,9.3,9.3,0,0,0,38.55,208a38.8,38.8,0,0,0,13,12.45,9.34,9.34,0,0,0,1,6c3.74,7,9.54,10.81,15.24,13.76a9.32,9.32,0,0,0,1,5.2c3,5.8,7.85,8.62,11.91,10.39q.19.39.42.78a23.47,23.47,0,0,0,7.06,7c2.75,2,5.54,3.6,8.28,5.18a9.23,9.23,0,0,0,1,4.69,21.5,21.5,0,0,0-8.66-1.83h-.18a9.35,9.35,0,0,0-3.77.83,27.2,27.2,0,0,0-10.87-3l-.53,0a9.32,9.32,0,0,0-6.89,3.05,35.47,35.47,0,0,0-7.71-.81c-.87,0-1.78,0-2.69.09a9.26,9.26,0,0,0-5,1.86,20.75,20.75,0,0,0-3-.22,21.46,21.46,0,0,0-2.4.14,9.3,9.3,0,0,0-6.35,3.61,2.83,2.83,0,0,0-.2.28c-1.27-.16-2.37-.28-3.48-.37a7,7,0,0,0-.79,0A9.32,9.32,0,0,0,27.91,280l-.28.33-18.08-.45H9.32a9.32,9.32,0,0,0-4.86,17.28,176.56,176.56,0,0,0,17.32,9.41c.08.27.17.55.27.81a9.32,9.32,0,0,0,5.43,5.43l4.62,1.74a3.43,3.43,0,0,0,.09.44,9.35,9.35,0,0,0,4.53,6,37.43,37.43,0,0,0,8.13,3.39,9.36,9.36,0,0,0,4.8,5.84,25.5,25.5,0,0,0,9.41,2.6c.07.13.13.26.2.38a9.31,9.31,0,0,0,5.59,4.45,28.82,28.82,0,0,0,8,1.12,31.39,31.39,0,0,0,5-.41,9.3,9.3,0,0,0,3.49,1.56,31.2,31.2,0,0,0,6.58.7,37.12,37.12,0,0,0,7.57-.81l.44.22a18.78,18.78,0,0,0,8.13,1.76,27.91,27.91,0,0,0,4.71-.44,10.17,10.17,0,0,0,5.14,1.34h0a9.41,9.41,0,0,0-1.27,2.77l-.14.09a9.3,9.3,0,0,0-3.56,4.94c-1.92,1.67-3.85,3.51-5.82,5.54a9.31,9.31,0,0,0,9.24,15.45l6.4-1.82a9.29,9.29,0,0,0,5.66.15,9.25,9.25,0,0,0,3.25.59,9.47,9.47,0,0,0,1.3-.09,16.38,16.38,0,0,0,1.95-.41,9.29,9.29,0,0,0,1.5.12,8.92,8.92,0,0,0,1.77-.17,22.3,22.3,0,0,0,3.8-1.05,9.13,9.13,0,0,0,5.19-.14,16.78,16.78,0,0,0,4.79-2.42,8.6,8.6,0,0,0,1.33-.23,15.13,15.13,0,0,0,6.31-3.32,4.36,4.36,0,0,0,.52-.11,12.82,12.82,0,0,0,6.25-3.57c.29-.14.57-.28.83-.43-3.09,10-6.16,17.83-9,22.94a9.32,9.32,0,0,0,13.69,12,76.12,76.12,0,0,0,12-11.32c1.06-1.3,2.59-3.16,6.23-13.81a13.47,13.47,0,0,0,1.16,1.43l.37.38a15.37,15.37,0,0,0,3.47,6.23,10.58,10.58,0,0,0,1,.92,16.91,16.91,0,0,0,2.69,4.66A9.24,9.24,0,0,0,199,385a23.76,23.76,0,0,0,2.6,3,9.39,9.39,0,0,0,2.71,1.83,14.43,14.43,0,0,0,1.41,1.41,9.29,9.29,0,0,0,4.08,2.08,9.29,9.29,0,0,0,4.82,3l4.35,5a9.32,9.32,0,0,0,16.2-7.86c-.53-2.78-1.14-5.37-1.83-7.81a9.36,9.36,0,0,0-.28-6.09l-.06-.16a9.34,9.34,0,0,0,.2-5,23.07,23.07,0,0,0-.83-2.79h.08c1,1,2,2,3.11,3.06a18.45,18.45,0,0,0,5.89,3.81,16.94,16.94,0,0,0,9,6,9.09,9.09,0,0,0,2.42.32h.34a22.54,22.54,0,0,0,10.63,6.78,9.46,9.46,0,0,0,2.46.33,9.82,9.82,0,0,0,1.09-.06,25.9,25.9,0,0,0,9,5.44,9.46,9.46,0,0,0,3,.51,9.35,9.35,0,0,0,4.63-1.23,35.3,35.3,0,0,0,9,3.19,9.06,9.06,0,0,0,2,.22,9.16,9.16,0,0,0,3.13-.55,20.45,20.45,0,0,0,4.73,1.39,9.7,9.7,0,0,0,1.51.12,9.37,9.37,0,0,0,5.57-1.84c1,.4,1.83.75,2.72,1.08a9.32,9.32,0,0,0,8.25-.83l.1-.07,15.84,4.91a9.49,9.49,0,0,0,2.76.42A9.32,9.32,0,0,0,346.48,389a165.12,165.12,0,0,0-13-12.73,5.44,5.44,0,0,0,0-.57,9.33,9.33,0,0,0-3.75-6.7l-3.43-2.53v-.1a9.34,9.34,0,0,0-2.73-7,35.65,35.65,0,0,0-6.26-5,9.31,9.31,0,0,0-3-6.58,24.18,24.18,0,0,0-7.67-4.74l0-.08a9.28,9.28,0,0,0-4.17-5.8,28.09,28.09,0,0,0-11.45-4,9,9,0,0,0-2.77-2.25,32.3,32.3,0,0,0-12.77-3.56l-.19-.17c-.42-.36-.84-.7-1.27-1a56.23,56.23,0,0,0,8.22-1.26,9.31,9.31,0,0,0,6.27-5c3.16,0,6.41-.11,9.75-.46a23.62,23.62,0,0,0,9.6-2.68c.26-.15.5-.31.74-.48,1.1.11,2.26.19,3.46.19a21.41,21.41,0,0,0,12-3.42,9.34,9.34,0,0,0,3.45-4c.78,0,1.57,0,2.36,0,4.52,0,11.26-.47,17.66-4.58a9.28,9.28,0,0,0,3.76-4.74,38.83,38.83,0,0,0,17.39-4.52,9.33,9.33,0,0,0,4.73-9.38A50.23,50.23,0,0,0,389.41,278a9.32,9.32,0,0,0,3.78-6.22,27.64,27.64,0,0,0,8.13-4.49,9.34,9.34,0,0,0,3.46-6.44,9.6,9.6,0,0,0-.26-3.17c3.26-1.47,5.54-2.54,7.82-3.72a9.34,9.34,0,0,0,4.9-6.69,9.64,9.64,0,0,0,.07-2.68L443.44,229a9.32,9.32,0,0,0-4.53-17.43h-.2a258.1,258.1,0,0,0-32.3,2.24,9.17,9.17,0,0,0-2.06-2.16,9.28,9.28,0,0,0-5.62-1.89,9.06,9.06,0,0,0-1.87.19l-10.63,2.17a9.58,9.58,0,0,0-1.8-2.5,9.33,9.33,0,0,0-6.56-2.69h-.49a50.72,50.72,0,0,0-15.27,3,9.2,9.2,0,0,0-1.6-2,9.32,9.32,0,0,0-6.39-2.54,9.1,9.1,0,0,0-.91,0,34.9,34.9,0,0,0-15.37,5.39,9.37,9.37,0,0,0-7-3.16,9.23,9.23,0,0,0-2.6.37A40.68,40.68,0,0,0,311,218.3a9.58,9.58,0,0,0-2.56-.35,9.43,9.43,0,0,0-3.16.55c-7.39,2.67-13,7-18,12.07a9.46,9.46,0,0,0-1.07-.06,8.27,8.27,0,0,0-1.11.07c-7.28.86-12.52,5.11-16.5,8.89a9.5,9.5,0,0,0-1.31-.09c-4.1,0-6.25,1.87-10.95,6l-.08.06c-2.76,2.4-5.21,4.93-7.57,7.37l-.32.33a17.51,17.51,0,0,0-3.59.55,9.16,9.16,0,0,0-.21-1.87,9.45,9.45,0,0,0-.49-1.59,70,70,0,0,0,11.49-17.77,9.31,9.31,0,0,0-.76-8.93c2.42-3.3,4.9-6.71,7.13-10.43,1.4-2.36,3.53-5.92,4.06-10.37a10.1,10.1,0,0,0,.06-1.55c3.61-3.8,7.47-8.89,8-16.49a9.34,9.34,0,0,0-1.8-6.16c4.85-5.83,9.6-12.64,10.43-22.43a9.31,9.31,0,0,0-2.24-6.89c3.78-5.46,7.36-11.81,8.62-20.36A9.32,9.32,0,0,0,283,118.69,57.49,57.49,0,0,0,287.36,97a9.3,9.3,0,0,0-3.49-7.46,31.2,31.2,0,0,0,1.73-11.28,9.31,9.31,0,0,0-7.21-8.78c1.13-5,1.81-8.23,2.37-11.57a9.33,9.33,0,0,0-5.53-10.1l4-37.49A9.3,9.3,0,0,0,270,0Zm0,18.65h0Z"/></g></g></svg>