<svg xmlns="http://www.w3.org/2000/svg" viewBox="0 0 985.75 445.59"><defs><style>.cls-1{fill:#dc1fff;}.cls-2{fill:#7885d5;}.cls-3{fill:#00ffa3;}.cls-4{fill:#02eed8;}.cls-5{fill:#03e1ff;}</style></defs><g id="Layer_2" data-name="Layer 2"><g id="Layer_7" data-name="Layer 7"><path class="cls-1" d="M372.56,375.94a41.76,41.76,0,0,1-22.1-6.1,108.57,108.57,0,0,1-9.93,14.89c-15.82,19.92-46.37,43.66-102.1,43.66q-6.54,0-12.79-.43c13.69,10.42,33.48,17.63,61.9,17.63,68.91,0,88.83-42.71,93.61-63.24v-6.41Z"/><path class="cls-1" d="M501.41,324.17v58.46c0,23.47-17,40.51-40.51,40.51h-.65v6.69c0,6.66,3.86,10.51,10.51,10.51H510c7,0,10.51-3.85,10.51-10.51V328.73A42.67,42.67,0,0,1,501.41,324.17Z"/><path class="cls-1" d="M745.35,410c-4.73-5.31-10.37-14.61-10.37-28.81v-5.29h-6.4l-3.36,14.75,0,.11,0,.1c-4.61,19.59-20.61,32.24-40.77,32.24H655l1.84,8.09c1.4,6,5.26,9.11,11.56,9.11h65.16c6.31,0,10.17-3.15,11.57-9.11l4-17.53A40.12,40.12,0,0,1,745.35,410Z"/><path class="cls-1" d="M965.79,209.7c.67,7.84.86,15.57.86,23V381.23c0,14.09-5.43,23.29-10,28.53-7.5,8.63-18.34,13.38-30.52,13.38h-.65v6.69c0,7,3.86,10.51,10.52,10.51h39.23c7,0,10.51-4.2,10.51-11.91V279.88C985.75,254.16,983.37,227.48,965.79,209.7ZM850.85,402a37.92,37.92,0,0,1-7,9.7c-5.21,5.21-14.48,11.42-29.1,11.42h-.65v5.29c0,7.71,3.86,11.91,10.52,11.91h39.24q10.5,0,10.5-10.51v-8.45A37.94,37.94,0,0,1,850.85,402Z"/><path class="cls-2" d="M323.45,328.74a41.72,41.72,0,0,1-22.09-6.1,107.15,107.15,0,0,1-9.93,14.9c-1.79,2.25-3.76,4.55-5.94,6.85A108.83,108.83,0,0,1,258,365.44c-15.23,8.25-34.91,14.42-60.14,15.56q-4.15.19-8.52.19-6.54,0-12.79-.43a79.62,79.62,0,0,0,24.51,12.44c10.4,3.28,22.75,5.19,37.38,5.19,25.14,0,43.76-5.68,57.5-13.9A77.74,77.74,0,0,0,315.44,368a79.26,79.26,0,0,0,16.61-32.86v-6.41Z"/><path class="cls-2" d="M460.25,280a39.83,39.83,0,0,1-7.95-3v58.46c0,16.7-8.62,30.14-22.05,36.5a42.38,42.38,0,0,1-17.86,4h-1.24v6.69a15.34,15.34,0,0,0,.14,2.08c.74,5.38,4.44,8.43,10.37,8.43H460.9c7,0,10.51-3.85,10.51-10.51V281.53A43.7,43.7,0,0,1,460.25,280Z"/><path class="cls-2" d="M696.24,362.84c-4.73-5.31-10.36-14.61-10.36-28.81v-5.29h-6.4l-3.36,14.76,0,.1,0,.1C672.15,360.37,660,372,644,375.12a45.77,45.77,0,0,1-8.7.82H605.85l1.84,8.09c1.25,5.33,4.46,8.41,9.63,9a15,15,0,0,0,1.93.12h65.16c6.31,0,10.16-3.15,11.56-9.11l4-17.54A37.76,37.76,0,0,1,696.24,362.84Z"/><path class="cls-2" d="M932.68,192.24c-2.88-11.18-7.78-21.43-16-29.73.67,7.83.86,15.56.86,23V334c0,14.09-5.44,23.29-10,28.53-7.51,8.63-18.35,13.38-30.52,13.38h-.65v6.69c0,3.29.85,5.82,2.45,7.56,1.8,2,4.53,2.95,8.06,2.95h39.24c7,0,10.51-4.2,10.51-11.91V232.68C936.65,219,936,205,932.68,192.24ZM814.08,368.92a37.58,37.58,0,0,1-12.33-14.1,37.93,37.93,0,0,1-7,9.7c-5.2,5.21-14.48,11.42-29.09,11.42H765v5.29c0,7.71,3.86,11.91,10.51,11.91h39.24q10.51,0,10.51-10.51v-8.45A39.37,39.37,0,0,1,814.08,368.92Z"/><path class="cls-3" d="M274.35,281.54a41.72,41.72,0,0,1-22.09-6.1,107.15,107.15,0,0,1-9.93,14.9c-1.79,2.25-3.77,4.55-5.94,6.86a107.71,107.71,0,0,1-14.7,13,110.21,110.21,0,0,1-12.81,8.09,117.23,117.23,0,0,1-14.33,6.55c-12.73,4.84-27.86,8.2-45.8,9q-4.16.19-8.52.19-6.54,0-12.8-.45A79.47,79.47,0,0,0,152,346a108.13,108.13,0,0,0,19,4.07,144.78,144.78,0,0,0,18.42,1.12c25.13,0,43.74-5.68,57.48-13.89a79.81,79.81,0,0,0,7.82-5.32,76.69,76.69,0,0,0,11.7-11.15A79.38,79.38,0,0,0,282.94,288v-6.41Z"/><path class="cls-3" d="M418.82,195.1l-6.83-30-3.91-17.2-.95-4.14H403.2V288.23a41,41,0,0,1-9,26.32,37.85,37.85,0,0,1-13.08,10.18,41.58,41.58,0,0,1-14,3.8c-1.25.12-2.53.19-3.83.2h-1.24v6.69a15.34,15.34,0,0,0,.14,2.08c.74,5.38,4.44,8.43,10.37,8.43h39.23c7,0,10.51-3.85,10.51-10.51V210.36Z"/><path class="cls-3" d="M647.14,315.64c-4.73-5.31-10.37-14.61-10.37-28.81v-5.29h-6.39L627,296.3l0,.1,0,.1c-.14.61-.3,1.2-.46,1.8-3.65,13.18-12.6,23-24.48,27.58a41.65,41.65,0,0,1-7.12,2,45.07,45.07,0,0,1-8.71.83H556.74l1.84,8.09c1.25,5.33,4.47,8.41,9.63,9a15,15,0,0,0,1.93.12h65.17a14.49,14.49,0,0,0,2-.13c5.11-.61,8.3-3.69,9.54-9l4-17.54A37.76,37.76,0,0,1,647.14,315.64Z"/><path class="cls-3" d="M886.21,159.25A109.66,109.66,0,0,0,883.58,145c-2.89-11.19-7.78-21.43-16-29.74.67,7.84.86,15.57.86,23V286.83c0,14.09-5.43,23.29-10,28.53-7.5,8.63-18.34,13.38-30.52,13.38h-.64v6.69c0,3.29.85,5.82,2.45,7.56,1.8,2,4.53,2.95,8.06,2.95H877c7,0,10.51-4.2,10.51-11.91V185.48A215.74,215.74,0,0,0,886.21,159.25ZM769.42,324.35a39.28,39.28,0,0,1-4.44-2.63,37.53,37.53,0,0,1-12.34-14.1,38,38,0,0,1-7,9.71c-5.21,5.2-14.48,11.41-29.1,11.41h-.64V334c0,7.71,3.85,11.91,10.51,11.91h39.24q10.5,0,10.51-10.51V327A40.63,40.63,0,0,1,769.42,324.35Z"/><path class="cls-4" d="M231.32,120.07c-.2-2.36-.52-4.9-1-7.58a83.33,83.33,0,0,0-3.15-12c-.43-1.28-.92-2.58-1.44-3.89H205.48a40.48,40.48,0,0,1-19.69,15.33q3.74,3.61,7,7.46a97,97,0,0,1,11.28,16.26l18.14-4C228.51,130.23,231.67,126.37,231.32,120.07ZM231,206.39c-.06-.17-.12-.34-.19-.51-.27-.73-.55-1.45-.85-2.16a67.71,67.71,0,0,0-13.89-21c0,.52,0,1.05,0,1.58a71.55,71.55,0,0,1-1.8,14.67,109.42,109.42,0,0,1-21.05,44.19c-1.79,2.25-3.76,4.55-5.94,6.85a107.82,107.82,0,0,1-14.17,12.58l-.53.39a110.06,110.06,0,0,1-12.8,8.09,118.62,118.62,0,0,1-14.33,6.55c-12.73,4.84-27.86,8.2-45.81,9q-4.15.19-8.52.19-6.54,0-12.79-.44a79.19,79.19,0,0,0,24.51,12.44,107.52,107.52,0,0,0,19,4.08A145,145,0,0,0,140.23,304c15.33,0,28.23-2.11,39.08-5.62a88.64,88.64,0,0,0,18.42-8.29,76,76,0,0,0,7.8-5.3l.71-.55a77.22,77.22,0,0,0,11-10.6,79.38,79.38,0,0,0,16.61-32.88V216.85A67.08,67.08,0,0,0,231,206.39Z"/><path class="cls-4" d="M397.33,100.7,396,94.86a44.49,44.49,0,0,1-12.34,1.7H354.1V241a41,41,0,0,1-9,26.33,37.71,37.71,0,0,1-13.08,10.17,40.43,40.43,0,0,1-10.37,3.3c-1.2.22-2.41.39-3.66.5s-2.54.19-3.84.2h-1.24v6.69a15.34,15.34,0,0,0,.14,2.08,10.75,10.75,0,0,0,1.22,3.8c1.66,3,4.81,4.63,9.15,4.63h39.24c7,0,10.51-3.85,10.51-10.51v-164a11.87,11.87,0,0,1,1.55-6.37c1.71-2.76,4.78-4.14,9-4.14H400.3Z"/><path class="cls-4" d="M598,268.44a40.46,40.46,0,0,1-9-17.24,47.81,47.81,0,0,1-1.37-11.57V206.26l-9.76,42.84,0,.1,0,.1c-.14.6-.29,1.19-.45,1.78a42.11,42.11,0,0,1-1.43,4.28,40,40,0,0,1-23.06,23.32,41.67,41.67,0,0,1-7.12,2,45.77,45.77,0,0,1-8.7.82H507.64l1.84,8.09c1.25,5.33,4.46,8.41,9.63,9a9.14,9.14,0,0,0,1.4.1,4.61,4.61,0,0,0,.53,0H586.2a14.64,14.64,0,0,0,2-.13,10.29,10.29,0,0,0,6.82-3.37,12.66,12.66,0,0,0,2.72-5.61l4-17.53A39,39,0,0,1,598,268.44Z"/><path class="cls-4" d="M837.1,112.05a109.66,109.66,0,0,0-2.63-14.21c-2.88-11.19-7.78-21.43-16-29.74.67,7.84.86,15.58.86,23V239.63A44.75,44.75,0,0,1,814.77,260a38.39,38.39,0,0,1-5.42,8.14c-7.43,8.55-18.13,13.29-30.17,13.38h-1v6.69c0,3.29.86,5.82,2.45,7.56,1.8,2,4.54,2.95,8.06,2.95h39.24c7,0,10.51-4.2,10.51-11.91V138.28A215.74,215.74,0,0,0,837.1,112.05ZM720.32,277.14c-1-.48-1.9-1-2.81-1.56-.56-.34-1.1-.69-1.63-1.06a37.53,37.53,0,0,1-12.34-14.1A37.76,37.76,0,0,1,684.92,278a42.9,42.9,0,0,1-17.5,3.5h-.65v5.29c0,7.71,3.86,11.91,10.51,11.91h39.24q10.51,0,10.51-10.51v-8.45A38.53,38.53,0,0,1,720.32,277.14Z"/><path class="cls-5" d="M181.89,159.2c-.07-.17-.13-.35-.2-.52-.27-.73-.55-1.45-.85-2.16a68.4,68.4,0,0,0-15.73-22.88c-9.39-9.21-21-16.18-32.86-21.9-1-.51-2.08-1-3.12-1.48-9.33-4.34-18.69-8-27.11-11.4C85.34,92.1,72.33,86.19,70.5,77.34c0-.09,0-.18,0-.27-1.29-7.44,5.77-14.86,17.6-16A30.5,30.5,0,0,1,91.12,61c15.86,0,27.16,8.43,30.16,21.89.12.52.23,1,.32,1.58,1.05,7,4.56,10.16,11.56,8.76l39.94-8.76c6.31-1.4,9.46-5.26,9.11-11.56-.2-2.35-.52-4.9-1-7.57a82.17,82.17,0,0,0-3.15-12,72.59,72.59,0,0,0-24.94-34.9C139.39,8,119.55.7,91.12.7,12.65.7,6.34,62.71,6.69,73.22c0,21.81,7.72,37.22,19.12,48.7,9.4,9.47,21.3,16.26,33.43,21.75,5.77,2.61,11.6,4.93,17.24,7.1,10.83,4.17,21,7.8,28.61,11.94,7.33,4,12.41,8.39,13.71,14.21,1.19,5.34-2.31,10.9-8.68,14.74-.4.24-.83.48-1.26.71a37.76,37.76,0,0,1-17.74,4.17,35.8,35.8,0,0,1-13.05-2.34c-9.87-3.83-16.78-12.27-17.78-24.29-.7-7.36-4.55-10.51-11.56-9.11l-13.77,3L9.14,169.56C2.84,171-.32,174.82,0,181.12.92,195,5.4,214.21,19.17,229.82c8,9.08,19.16,16.93,34.57,21.79a108.33,108.33,0,0,0,19,4.07,145,145,0,0,0,18.42,1.12c15.33,0,28.24-2.11,39.09-5.63a89.58,89.58,0,0,0,18.41-8.27,80.64,80.64,0,0,0,7.8-5.31l.71-.55a77.22,77.22,0,0,0,11-10.6c12.83-15.1,16.93-31.73,17.77-39.38a25,25,0,0,0,.18-2.78A73,73,0,0,0,181.89,159.2Z"/><path class="cls-5" d="M383.66,6.3H204.28c-6.66,0-10.51,3.51-10.51,10.51V56.05a13.31,13.31,0,0,0,.67,4.36,8.53,8.53,0,0,0,4.21,4.93,11.54,11.54,0,0,0,4.87,1.2l.76,0h49.05q10.5,0,10.51,10.51V241a15.34,15.34,0,0,0,.14,2.08,10.55,10.55,0,0,0,1.21,3.8c1.66,3,4.81,4.63,9.16,4.63h39.24c7,0,10.51-3.85,10.51-10.51v-164a11.87,11.87,0,0,1,1.55-6.37c1.71-2.76,4.78-4.14,9-4.14h49.05c7,0,10.51-3.85,10.51-10.51V16.81Q394.17,6.31,383.66,6.3Z"/><path class="cls-5" d="M590.7,6.3H549c-6.31,0-10.16,3.15-11.56,9.11l-3.61,15.74L524.78,70.7l-1.12,4.88L517.9,100.7,514,117.9l-2.63,11.49-4.24,18.51-.47,2c-.7,3.16-3.5,3.16-4.2,0l-.47-2-6.87-30L484.27,70.76,480.32,53.5l-6.88-30-1.85-8.09c-1.41-6-5.26-9.11-11.57-9.11H418.33c-7.35,0-10.86,4.21-9.1,11.56l1.28,5.64,6.84,30,3.91,17.2,6.83,30,3,13.06.94,4.14,5.83,25.58,1,4.42,3,13.06.94,4.14,6.83,30L452.3,207l8.07,35.44c1.26,5.33,4.47,8.41,9.64,9a9.14,9.14,0,0,0,1.4.1,4.61,4.61,0,0,0,.53,0H537.1a14.49,14.49,0,0,0,2-.13A10.28,10.28,0,0,0,546,248a12.76,12.76,0,0,0,2.71-5.61l10.78-47.33,2.61-11.45,4.22-18.55,3.92-17.2,4.15-18.23L577,117.9l8.55-37.5,5.72-25.15,7.24-31.75,1.28-5.64C601.56,10.51,598.06,6.3,590.7,6.3Z"/><path class="cls-5" d="M788,64.86a109.81,109.81,0,0,0-2.63-14.22c-3.28-12.71-9.16-24.21-19.55-33C753.05,6.78,733.46,0,703.5,0c-35.07,0-55.93,9.29-68.27,23.5C627.8,32,623.46,42.36,621,53.5a150.9,150.9,0,0,0-3.17,28.84c-.08,2.92-.11,5.84-.11,8.75V239.63c0,7.71,3.85,11.91,10.51,11.91h39.24q8.15,0,10-6.32a15.23,15.23,0,0,0,.53-4.19V210.55c0-7,3.85-10.51,10.51-10.51h30.13q10.51,0,10.51,10.51V241c0,3.29.85,5.82,2.45,7.56,1.8,2,4.53,2.95,8.06,2.95h39.24c3.49,0,6.12-1,7.87-3h0c1.76-2,2.63-5,2.63-8.85V91.09A215.64,215.64,0,0,0,788,64.86Zm-58.92,64.06a11.55,11.55,0,0,1-2,7.25,9.23,9.23,0,0,1-5.54,3.24,18.43,18.43,0,0,1-2.94.37H688.44c-6.66,0-10.51-3.85-10.51-10.51V91.09c0-5.42.25-10,1.37-13.63a13.45,13.45,0,0,1,6.47-8.36c3.81-2.16,9.44-3.24,17.73-3.24,18.87,0,24,5.6,25.21,16.79a75.47,75.47,0,0,1,.37,8.44Z"/></g></g></svg>