<svg xmlns="http://www.w3.org/2000/svg" viewBox="0 0 1017.18 309.32"><defs><style>.cls-1{opacity:0.28;}.cls-2{fill:lime;}.cls-3{fill:#dc1fff;}.cls-4{fill:#7885d5;}.cls-5{fill:#00ffa3;}.cls-6{fill:#02eed8;}.cls-7{fill:#03e1ff;}</style></defs><g id="Layer_2" data-name="Layer 2"><g id="Layer_6" data-name="Layer 6"><g class="cls-1"><path class="cls-2" d="M257,153.13a.76.76,0,0,1,.11.14c0-.14,0-.28.05-.42A1.33,1.33,0,0,1,257,153.13Z"/></g><path class="cls-3" d="M255.87,280.35l-.76-.61c-.58-.48-1.16-1-1.71-1.44l-.79-.7c-.51-.46-1-.93-1.51-1.4-.21-.19-.41-.39-.61-.6-.85-.83-1.67-1.68-2.45-2.53l-.61-.69c-.46-.51-.9-1-1.33-1.53l-.53-.65c-.12-.15-.25-.3-.36-.45s-.39-.48-.57-.72c-1.31-1.68-2.49-3.36-3.53-5l-.57.76-.88,1.14c-10.94,13.77-32.06,30.18-70.59,30.18q-3.85,0-7.58-.22c9.47,7.49,23.33,12.71,43.43,12.71,30.57,0,47.18-12.16,56-24.62Q258.25,282.22,255.87,280.35Z"/><path class="cls-3" d="M380.08,284.47c-.23-.22-.46-.46-.68-.7l-.51-.56c-.43-.5-.86-1-1.25-1.55-.13-.16-.25-.33-.36-.49-.34-.48-.68-1-1-1.48l-.41-.7c-.14-.23-.26-.46-.39-.69s-.29-.56-.43-.84c-.23-.45-.44-.91-.64-1.38v0l-.16-.39c-.11-.25-.21-.51-.3-.77-.29-.77-.54-1.55-.77-2.35h0c-.35.39-.7.78-1.07,1.17-.15.15-.29.31-.44.47q-1.76,1.82-3.73,3.6l-.6.52c-.65.56-1.31,1.12-2,1.67l-.69.55-.71.54-.72.54c-.72.54-1.47,1.07-2.24,1.59l-.78.51q-1.95,1.29-4.08,2.49l-.87.48c-.57.32-1.16.62-1.77.93l-.88.43-1.16.57c-.5.24-1,.47-1.53.7l-.14.06c-.59.25-1.18.51-1.79.75-.41.18-.82.34-1.24.5s-.62.25-.94.36c-.68.26-1.37.51-2.08.75-.92.31-1.85.62-2.81.91l-.86.26-.69.19q-1,.28-1.95.54c-.5.12-1,.25-1.49.36l-1.18.28-1.2.26c-.81.18-1.63.34-2.45.49l-.75.14c-.33.06-.66.12-1,.16l-.06,0c-.43.08-.88.14-1.32.21-.69.11-1.38.2-2.09.3l-1.38.17c-.84.1-1.69.19-2.56.27l-1.22.11-.42,0c-.38,0-.75.07-1.13.09-.16,0-.31,0-.47,0-.79.06-1.58.1-2.38.13l-.74,0-1.5,0-1.83,0h-3.8c-1.11,0-2.19-.05-3.26-.09l-1.4-.07c9,7.45,22.44,12.66,42.44,12.66,24.1,0,38.68-7.56,47.46-17.52A27.29,27.29,0,0,1,380.08,284.47Z"/><path class="cls-3" d="M535.89,264.41v-.1a8.61,8.61,0,0,0-4.32-1h-7.78v1.06c0,10.12-4.3,16.54-7.91,20.15-.23.23-.46.46-.71.69q-.93.87-2.07,1.74l-1,.67a28.39,28.39,0,0,1-16.42,4.82h-67v5.23c0,4.59,2.66,7.26,7.26,7.26h95.58q7.26,0,7.26-7.26V277.39A29.34,29.34,0,0,1,535.89,264.41Z"/><path class="cls-3" d="M633,259.07a29.09,29.09,0,0,1-13.92-3.42v8.76c0,15.76-11.09,27.34-26.58,28v5.27c0,4.59,2.66,7.26,7.26,7.26h27.1c4.84,0,7.26-2.67,7.26-7.26V259.07Z"/><path class="cls-3" d="M736.82,277.89c-.42-.78-.82-1.59-1.18-2.43l-.3-.73c-.15-.36-.29-.73-.42-1.09l-.08-.23c-.13-.36-.24-.71-.35-1.07-.16-.52-.32-1-.45-1.58l-.15-.61,0-.06h0l0-.08-2.49-10.93h-4.68a31.23,31.23,0,0,1-3.51-.19v5.53c0,15.6-10.86,27.1-26.1,28v5.29c0,4.59,2.66,7.26,7.26,7.26h26.61c4.84,0,7.26-2.67,7.26-7.26V280.15C737.72,279.43,737.26,278.67,736.82,277.89Z"/><path class="cls-3" d="M849.16,283.4c-3.28-3.68-7.19-10.12-7.19-19.95v-4.38h-4.08L835.4,270l0,.08v.07c-3.2,13.56-14.28,22.33-28.24,22.33H788.57l1.41,6.2c1,4.11,3.63,6.29,8,6.29h45c4.36,0,7-2.18,8-6.29l2.58-11.33A26.39,26.39,0,0,1,849.16,283.4Z"/><path class="cls-3" d="M922.09,278a26.73,26.73,0,0,1-4.49,6.27c-.11.09-.2.2-.31.29l-.7.69c-.63.58-1.32,1.16-2.08,1.74-.3.22-.62.45-1,.67a27.92,27.92,0,0,1-14.94,4.78v4.3c0,5.32,2.67,8.23,7.26,8.23H933q7.26,0,7.26-7.26v-5.95A26.45,26.45,0,0,1,922.09,278Zm79.37-134.16c.54,5.8.69,11.54.69,17v102.6c0,9.76-3.77,16.13-6.92,19.76a27.3,27.3,0,0,1-19.66,9.23v5.27c0,4.84,2.66,7.26,7.26,7.26h27.1c4.83,0,7.25-2.91,7.25-8.23V194.15C1017.18,175.48,1015.37,156.08,1001.46,143.84Z"/><path class="cls-4" d="M144.72,134.07l-.12.14.15.06Zm60.95,96.55c-.47.64-.95,1.27-1.45,1.9q-1.89,2.39-4.2,4.83a75,75,0,0,1-16.19,12.91c-10.27,6.11-23.7,10.89-41.14,12.13-2.9.2-5.92.32-9.05.32-2.79,0-5.51-.09-8.18-.27a55.39,55.39,0,0,0,19.67,9.84,87.82,87.82,0,0,0,23.94,3c16.09,0,28.31-3.37,37.57-8.38a53.69,53.69,0,0,0,17.12-14.45c.54-.68,1-1.37,1.51-2.05A65.91,65.91,0,0,1,205.67,230.62Z"/><path class="cls-4" d="M344.64,251.08a27.05,27.05,0,0,1-6.9-11.93,65.51,65.51,0,0,1-10.32,9.33c-9.69,7.05-23,12.74-41.1,14.43-3.6.34-7.38.52-11.38.52-1.71,0-3.39,0-5-.1l-2.15-.1c.6.5,1.22,1,1.85,1.47a53.7,53.7,0,0,0,19.08,8.85A87.68,87.68,0,0,0,310.38,276c15.83,0,27.55-3.27,36.22-8.32a45.8,45.8,0,0,0,11.4-9.37A27.16,27.16,0,0,1,344.64,251.08Zm-87.6-98a.76.76,0,0,1,.11.14c0-.14,0-.28.05-.42A1.33,1.33,0,0,1,257,153.13Z"/><path class="cls-4" d="M502.73,242.55a29.53,29.53,0,0,1-2.28-11.27,8.08,8.08,0,0,0-4.72-1.22h-7.38V231c0,10.12-4.3,16.55-7.91,20.16a26.26,26.26,0,0,1-10,6.25,30.26,30.26,0,0,1-10.15,1.65H392.89v5.34c0,4.6,2.66,7.26,7.26,7.26h95.58q7.25,0,7.25-7.26V242.55ZM427.24,102.29h-7.37V144H424a31.67,31.67,0,0,1,4.69.33c.34,0,.68.1,1,.16v-42A10.73,10.73,0,0,0,427.24,102.29Z"/><path class="cls-4" d="M596.8,227.25a30,30,0,0,1-4.26-.29,28.37,28.37,0,0,1-8.86-2.72V231c0,10.12-4.57,18.51-11.95,23.41a28.43,28.43,0,0,1-14.3,4.6c-.24,0-.48,0-.73,0v5.36c0,2.87,1,5,2.93,6.17a8,8,0,0,0,4.33,1.09h27.1a11.54,11.54,0,0,0,1.48-.09c3.85-.5,5.78-3.07,5.78-7.17V227.25Z"/><path class="cls-4" d="M698.44,236.74v-.07l0-.07-1.34-5.88-.79-3.47h-5.85c-.91,0-1.81,0-2.71-.11V231c0,9.89-4.37,18.14-11.45,23.08a28.41,28.41,0,0,1-15,5v5.37c0,4.6,2.67,7.26,7.27,7.26H695.1a10.11,10.11,0,0,0,2-.17c3.53-.65,5.29-3.16,5.29-7.09V246.14A30.47,30.47,0,0,1,698.44,236.74Z"/><path class="cls-4" d="M813.71,250c-3.27-3.66-7.18-10.11-7.18-20v-2.79h-4.44L800,236.6v.07l0,.07c-2.46,10.5-9.66,18.12-19.26,21a30.83,30.83,0,0,1-9,1.3h-19l1.44,6.31c.71,3,2.33,5,4.87,5.83a9.64,9.64,0,0,0,3.11.46h45c4.36,0,7-2.17,8-6.29l2.67-11.68A26.4,26.4,0,0,1,813.71,250Z"/><path class="cls-4" d="M978.67,133.19c-2.15-8.49-5.95-16.21-12.61-22.24.51,5.63.64,11.18.64,16.49V230c0,9.76-3.75,16.13-6.92,19.77a27.27,27.27,0,0,1-20,9.24v5.36c0,3.07,1.07,5.18,3,6.29a8.34,8.34,0,0,0,4.22,1h27.18c4.79,0,7.18-2.93,7.18-8.22V160.85C981.34,151.48,980.89,141.93,978.67,133.19Zm-80,123.05a26.08,26.08,0,0,1-12-11.65,26.61,26.61,0,0,1-4.8,6.58,27.43,27.43,0,0,1-19.07,7.88v4.4c0,5.32,2.66,8.22,7.26,8.22h27.1a13.77,13.77,0,0,0,1.48-.08q5.77-.7,5.77-7.18v-6.15A28.13,28.13,0,0,1,898.62,256.24Z"/><path class="cls-5" d="M187.8,217.23a66.65,66.65,0,0,1-17.59-18.43c-.47.63-1,1.27-1.45,1.89-.95,1.2-2,2.42-3.08,3.64a74.12,74.12,0,0,1-8.14,7.72,76.75,76.75,0,0,1-8.55,6,80.52,80.52,0,0,1-9.37,4.85,96.52,96.52,0,0,1-31.73,7.58c-3.11.25-6.34.37-9.71.37-1.71,0-3.39,0-5.05-.1a56.61,56.61,0,0,0,16.88,8,79.59,79.59,0,0,0,15.65,2.8q4.17.36,8.77.36c16,0,28.15-3.33,37.38-8.28a56,56,0,0,0,7.84-5.08,53.25,53.25,0,0,0,9.16-9.08c.27-.33.52-.67.78-1C189,218.05,188.38,217.64,187.8,217.23Z"/><path class="cls-5" d="M309.19,219.25a27,27,0,0,1-6.9-11.92,65.17,65.17,0,0,1-9.83,9,66.62,66.62,0,0,1-6.17,4.08A78.85,78.85,0,0,1,262,229.45c-2,.41-4,.77-6.16,1.06-1.42.2-2.88.38-4.37.52a120,120,0,0,1-12,.58c-1.42,0-2.81,0-4.18-.07A53.28,53.28,0,0,0,253.58,240l.22.06a80.42,80.42,0,0,0,15,2.33q3.31.22,6.92.22a100.06,100.06,0,0,0,10.55-.53c10.54-1.1,18.89-3.87,25.47-7.69a45.12,45.12,0,0,0,10.25-8A27.13,27.13,0,0,1,309.19,219.25Z"/><path class="cls-5" d="M466.71,209.25A29.6,29.6,0,0,1,465,199.19v-1.78a9,9,0,0,0-3.92-.76h-8.19v2.54c0,10.12-4.3,16.54-7.9,20.15a26.15,26.15,0,0,1-9.36,6,28.41,28.41,0,0,1-6.11,1.56,32.92,32.92,0,0,1-4.69.32H358.24V231c0,4.6,2.66,7.26,7.26,7.26h95.58q7.26,0,7.26-7.26V212.93A26.37,26.37,0,0,1,466.71,209.25ZM392.6,68.89h-8.18v42.42h5.95a31.85,31.85,0,0,1,3.31.17,29,29,0,0,1,6.18,1.26V76.15Q399.86,68.89,392.6,68.89Z"/><path class="cls-5" d="M563.13,194.54a30,30,0,0,1-5.64-.52,27.53,27.53,0,0,1-9.26-3.47v8.64c0,9.93-4.41,18.2-11.54,23.13a28.17,28.17,0,0,1-13.77,4.82l-.87.06V231c0,2.66.89,4.66,2.52,5.88a7.75,7.75,0,0,0,4.74,1.38h27.1c.38,0,.74,0,1.08-.05,4.12-.38,6.18-3,6.18-7.21V194.54Z"/><path class="cls-5" d="M641.21,134.2v1.39h.32ZM663,204.92v-.07l0-.07-.94-4.14-.6-2.62-.79-3.48h-3.85a30.31,30.31,0,0,1-4.51-.32v5c0,9.71-4.21,17.83-11.06,22.8a26.79,26.79,0,0,1-6.25,3.36,29.49,29.49,0,0,1-8.38,1.82V231c0,4.6,2.66,7.26,7.25,7.26h26.62a11.05,11.05,0,0,0,1.57-.11c3.79-.52,5.69-3.08,5.69-7.15v-15.5A30.18,30.18,0,0,1,663,204.92Z"/><path class="cls-5" d="M778.26,218.18c-3.28-3.68-7.18-10.12-7.18-20v-3.68h-4l-.11-.48-.12.48-2.33,10.24v.14c-2.42,10.25-9.32,17.75-18.58,20.81a29.86,29.86,0,0,1-6.9,1.41c-.91.07-1.83.11-2.76.11H718.41l1.08,4.73c.67,2.85,2.16,4.77,4.47,5.68a9.45,9.45,0,0,0,3.46.61h45.07a8.9,8.9,0,0,0,4.3-1,7.69,7.69,0,0,0,3.68-5.31l2.23-9.82A27,27,0,0,1,778.26,218.18Z"/><path class="cls-5" d="M946,111a78.69,78.69,0,0,0-1.89-11c-2.15-8.65-6-16.52-12.85-22.63l-.86-.75c0,.23,0,.47.07.71a176.78,176.78,0,0,1,.83,18.3V198.22c0,9.75-3.77,16.13-6.92,19.76a27.27,27.27,0,0,1-19.26,9.22V231c0,3,1,5.07,2.9,6.21a8.28,8.28,0,0,0,4.36,1.05h27.1c4.84,0,7.25-2.9,7.25-8.23V127.44A157.77,157.77,0,0,0,946,111ZM868.24,226.27a27,27,0,0,1-4.67-1.67,26.08,26.08,0,0,1-12.38-11.83,26.34,26.34,0,0,1-3,4.6,23.52,23.52,0,0,1-1.78,2,26.41,26.41,0,0,1-3.63,3,28,28,0,0,1-14.64,4.84V230c0,5.33,2.67,8.23,7.26,8.23h27.1c.37,0,.73,0,1.08-.05a8.8,8.8,0,0,0,2-.39q4.14-1.34,4.14-6.82v-4.39C869.24,226.52,868.74,226.4,868.24,226.27Z"/><path class="cls-6" d="M151.55,183.8a62.54,62.54,0,0,1-4.91-4c-.94-.83-1.83-1.68-2.69-2.53a66.41,66.41,0,0,1-9-11.19c-.47.63-.95,1.27-1.45,1.9-.89,1.12-1.85,2.26-2.88,3.4q-2.08,2.34-4.58,4.67c-1.34,1.25-2.78,2.49-4.3,3.71a76.66,76.66,0,0,1-8.75,6,79.06,79.06,0,0,1-9.34,4.73,97.59,97.59,0,0,1-31.87,7.34c-2.85.2-5.8.31-8.87.31q-4.22,0-8.26-.27a56.07,56.07,0,0,0,19.82,9.43,80.35,80.35,0,0,0,13.76,2.35c2.89.25,5.93.39,9.14.39,13,0,23.41-2.19,31.82-5.66A60.66,60.66,0,0,0,138,200a57,57,0,0,0,5.93-4.27c1.32-1.09,2.54-2.21,3.68-3.35a51.84,51.84,0,0,0,5.11-5.89c.31-.41.6-.82.89-1.23C152.87,184.75,152.21,184.28,151.55,183.8Zm-6.83-49.73-.12.14.15.06Z"/><path class="cls-6" d="M285.49,193.34A26.68,26.68,0,0,1,267,174.62l-.2.22a65.62,65.62,0,0,1-10.47,9.36,67.39,67.39,0,0,1-6.73,4.26c-1,.59-2.14,1.16-3.26,1.71a79.49,79.49,0,0,1-15.38,5.6l-2.16.53c-1,.21-1.92.42-2.91.61a104.07,104.07,0,0,1-10.54,1.49c-1.58.15-3.19.26-4.85.34-2,.1-4.14.16-6.31.16s-4.1-.05-6.07-.15q-.61,0-1.23-.06c.34.28.69.54,1,.8a53.78,53.78,0,0,0,20,9.07,80.79,80.79,0,0,0,10.85,1.79c1.24.11,2.51.21,3.81.28,1.74.1,3.53.16,5.39.17h.65a101.53,101.53,0,0,0,10.95-.56c1.46-.16,2.87-.36,4.23-.58,9.79-1.57,17.48-4.7,23.53-8.73a45.58,45.58,0,0,0,8.09-6.91l.49-.54Z"/><path class="cls-6" d="M431.22,175.84a29.69,29.69,0,0,1-1.47-8.9,5,5,0,0,0-1-.92,8.25,8.25,0,0,0-4.69-1.19h-6.39v1.65c0,10.12-4.3,16.55-7.92,20.16a26.79,26.79,0,0,1-2.78,2.41,26.19,26.19,0,0,1-7.22,3.84,28.25,28.25,0,0,1-6.84,1.48c-.32,0-.64.07-1,.09-.75,0-1.54.08-2.34.08H321.2v4.65c0,4.12,2.14,6.69,5.91,7.18a11.67,11.67,0,0,0,1.35.08H424a8.25,8.25,0,0,0,4.69-1.19q2.56-1.75,2.56-6.07V175.84ZM355.56,37.07h-6.39v74.24h13.65v-67Q362.82,37.07,355.56,37.07Z"/><path class="cls-6" d="M533.31,66.78H513v99.7c0,10.38-4.8,18.94-12.52,23.78a27.71,27.71,0,0,1-9.29,3.67,31.78,31.78,0,0,1-4.22.55c-.63,0-1.28.06-1.93.06v4.65c0,3.06,1.18,5.27,3.34,6.4a7.7,7.7,0,0,0,2.81.8,9.79,9.79,0,0,0,1.11.06h27.1a11,11,0,0,0,1.88-.16c3.59-.62,5.38-3.15,5.38-7.1V86a8.11,8.11,0,0,1,1.11-4.46c1.18-1.87,3.29-2.81,6.15-2.81h.39V66.76Z"/><path class="cls-6" d="M627.74,172.21l0-.07v-.08L626,164.71l-.25-1.08-4.5-19.72-1.89-8.32L617,125.15v41.33c0,10.16-4.61,18.58-12,23.47a27.23,27.23,0,0,1-6.66,3.17,29.78,29.78,0,0,1-5.78,1.22,29.45,29.45,0,0,1-3,.19v4.66c0,2.9,1.06,5,3,6.2a8,8,0,0,0,4.26,1.06h26.61a9.81,9.81,0,0,0,2.38-.26c3.26-.76,4.89-3.23,4.89-7V179.94A30.72,30.72,0,0,1,627.74,172.21Z"/><path class="cls-6" d="M743,185.46a27.26,27.26,0,0,1-4.81-7.65,31.37,31.37,0,0,1-2.37-12.3v-22.3l-4.76,20.89h0l-1.81,8,0,.08,0,.07a29.48,29.48,0,0,1-6.05,12.33,27.16,27.16,0,0,1-7.37,6.18,27.84,27.84,0,0,1-5.92,2.55,30.64,30.64,0,0,1-7.52,1.24q-.68,0-1.38,0h-19.8l1.27,5.62c.74,3.17,2.51,5.2,5.27,5.94a9.62,9.62,0,0,0,2.71.35h45a9.87,9.87,0,0,0,2.76-.36,6.64,6.64,0,0,0,2.2-1,7.92,7.92,0,0,0,3-4.91l2.68-11.74A26.91,26.91,0,0,1,743,185.46Z"/><path class="cls-6" d="M831.57,193.15h0l-.09,0a28.4,28.4,0,0,1-4.13-1.7,26.07,26.07,0,0,1-11.4-11.36,26.6,26.6,0,0,1-4.79,6.58,26.22,26.22,0,0,1-2.64,2.3,28.15,28.15,0,0,1-17.42,5.6v3.68c0,5.32,2.66,8.23,7.26,8.23h27.1a11.14,11.14,0,0,0,1.89-.15,7.14,7.14,0,0,0,1.17-.27l.13,0h0q4.07-1.37,4.07-6.8v-5.71C832.33,193.38,831.94,193.27,831.57,193.15Zm77.2-115.39h0a73.69,73.69,0,0,0-2.21-11.44c-2.1-7.41-5.55-14.17-11.17-19.65.48,5.54.62,11,.62,16.24v102.6c0,9.76-3.76,16.13-6.92,19.77a26.64,26.64,0,0,1-14.22,8.48,30.46,30.46,0,0,1-6.82.78v4.65c0,2.7.83,4.64,2.36,5.84a5.67,5.67,0,0,0,1.68.91,9.36,9.36,0,0,0,3.21.51H902.4a10.47,10.47,0,0,0,1.28-.08c4-.48,6-3.32,6-8.15V95.63A151.58,151.58,0,0,0,908.77,77.76Z"/><path class="cls-7" d="M128.5,127.13v.15c0,3.7-2.14,16.68-11.86,28.49a54.47,54.47,0,0,1-4.57,4.89c-.79.74-1.6,1.47-2.46,2.17a55.47,55.47,0,0,1-7.47,5.24,60.52,60.52,0,0,1-8.43,4.06c-8.22,3.23-18.35,5.24-30.78,5.24a100.27,100.27,0,0,1-10.39-.51A77.21,77.21,0,0,1,37.68,174c-10.63-3.25-18.35-8.53-24-14.68C3.83,148.4.64,134.82,0,125.1c-.24-4.35,1.93-7,6.29-8l18.2-4,9.14-2c4.84-1,7.5,1.22,8,6.3.79,9.55,7,15.83,15.5,17.76a26.48,26.48,0,0,0,5.79.63,25.5,25.5,0,0,0,13.24-3.45,16.38,16.38,0,0,0,1.56-1.06c3.31-2.55,5-5.85,4.32-9s-3.16-5.87-6.73-8.2c-4.95-3.23-12.12-5.9-20-8.9-4.47-1.71-9.17-3.52-13.83-5.6-8.39-3.76-16.65-8.37-23.22-14.83-8.12-8-13.66-18.74-13.66-34.09C4.37,43.32,8.73.49,62.93.49c19.62,0,33.32,5,42.8,12.17A50.2,50.2,0,0,1,123,36.71,59.63,59.63,0,0,1,125,44.53a57.23,57.23,0,0,1,.8,5.8c.24,4.36-1.93,7-6.29,8L92,64.36c-4.84,1-7.26-1.2-8-6a.28.28,0,0,1,0-.09c-1.72-9.87-9.7-16.13-21-16.13-.44,0-.88,0-1.31,0-8.66.49-13.89,5.79-13,11.09a7.54,7.54,0,0,0,.2.82c1.81,6,11.32,10.1,23.18,14.88,5.52,2.22,11.54,4.6,17.53,7.4,1,.48,2,1,3,1.47,8.56,4.25,16.86,9.46,23.31,16.45a46.45,46.45,0,0,1,9.14,14.27l.48,1.23c.34.93.65,1.88.94,2.85A51.37,51.37,0,0,1,128.5,127.13Z"/><path class="cls-7" d="M264.59,44.22a66.89,66.89,0,0,0-2.11-8.67A47.76,47.76,0,0,0,246.8,12.12C237.79,5,224.53,0,205,0c-31.36,0-46.58,12.8-53.94,27a60.47,60.47,0,0,0-5.7,17.66q-.33,2-.54,3.93a89.81,89.81,0,0,0-.55,10.19v60.5c0,.43,0,.88,0,1.34a82.36,82.36,0,0,0,1.2,13.43c0,.07,0,.14,0,.2a55.87,55.87,0,0,0,8.94,22.41,44.33,44.33,0,0,0,8.5,9.07,51.74,51.74,0,0,0,19,9.5,74.58,74.58,0,0,0,11.89,2.25c1.38.15,2.8.28,4.26.37q2.83.19,5.88.21h1q5.28,0,10-.47c1.39-.13,2.75-.3,4.06-.49a69.58,69.58,0,0,0,10.57-2.35,54.06,54.06,0,0,0,12.77-5.7,46,46,0,0,0,7.28-5.59l.76-.74a45.07,45.07,0,0,0,6.18-7.62c.43-.67.84-1.33,1.22-2,.06-.09.11-.19.16-.28a60.55,60.55,0,0,0,7.09-22.28,88.75,88.75,0,0,0,.67-11.27V58.8A85.65,85.65,0,0,0,264.59,44.22Zm-40.44,62.25c0,2,0,4-.06,5.83a70.9,70.9,0,0,1-.76,9.35,21.59,21.59,0,0,1-3,8.44,12.24,12.24,0,0,1-2,2.39,12.91,12.91,0,0,1-3.34,2.2,23.68,23.68,0,0,1-10,1.79c-6.05,0-10.19-1.29-13-3.73-2.51-2.15-4-5.2-4.86-9a58.37,58.37,0,0,1-1.16-11c0-2-.06-4-.06-6.21V71.62a113.05,113.05,0,0,1,.56-13.37,2.7,2.7,0,0,1,0-.28c1.22-9.55,4.89-15.37,15.58-16.23.92-.08,1.9-.12,2.93-.12,13.16,0,17.3,6.15,18.57,16.8a114.88,114.88,0,0,1,.55,13.2Z"/><path class="cls-7" d="M396.84,139.38v27.1q0,5.36-3.95,6.76a7.26,7.26,0,0,1-1,.27,11.18,11.18,0,0,1-2.34.23H294a9.33,9.33,0,0,1-2.73-.38,5.88,5.88,0,0,1-3.57-2.79,8.19,8.19,0,0,1-1-4.09V11.62c0-4.84,2.66-7.26,7.26-7.26h27.1q7.26,0,7.26,7.26V124.86c0,4,2,6.5,5.48,7.11a10.09,10.09,0,0,0,1.78.15h54a10,10,0,0,1,3.31.5C395.52,133.55,396.84,135.81,396.84,139.38Z"/><path class="cls-7" d="M540.57,11.62v27.1c0,4.6-2.42,7.26-7.26,7.26H499.43a7.15,7.15,0,0,0-5.63,2.11,7.54,7.54,0,0,0-1.63,5.14V166.48a8.36,8.36,0,0,1-1,4.29c-1.12,1.9-3.17,2.95-6.15,3h-27.2a9.34,9.34,0,0,1-2.5-.32,6,6,0,0,1-3.22-2,7.57,7.57,0,0,1-1.54-4.93V53.23q0-7.24-7.26-7.25H409.42c-4.6,0-7.26-2.66-7.26-7.26V11.62c0-4.84,2.66-7.26,7.26-7.26H533.31Q540.57,4.36,540.57,11.62Z"/><path class="cls-7" d="M596.22,11.62V166.48c0,4.41-2.23,7-6.68,7.24l-.59,0H562.34a7.1,7.1,0,0,1-5.64-2.22,7.58,7.58,0,0,1-1.62-5V11.62c0-4.84,2.66-7.26,7.26-7.26H589Q596.21,4.36,596.22,11.62Z"/><path class="cls-7" d="M744.3,12.34l-.9,3.93-5.12,22.51L735,53l-6.48,28.48-.33,1.45-4.43,19.42L723,106l-2,8.82-.57,2.48-4.17,18.33-6.5,28.51-.76,3.35a7.69,7.69,0,0,1-3.75,5.36,8.11,8.11,0,0,1-2.86.84,10.1,10.1,0,0,1-1.38.09H656c-.3,0-.6,0-.89,0a8.09,8.09,0,0,1-3.61-1,7.77,7.77,0,0,1-3.49-5.2l-.84-3.68-4.62-20.32-1.79-7.86-.32-1.39L636,114.78l-2.84-12.49-2.47-10.87-2.27-9.93-2-8.85-5.07-22.25-3-13.32-4.74-20.81-.89-3.92c-1.21-5.08,1.21-8,6.29-8h28.79c4.35,0,7,2.17,8,6.29L657,16.26l4.77,20.81,2.6,11.35L672,81.49l4.77,20.8.29,1.28c.48,2.18,2.42,2.18,2.9,0l.3-1.28,4.48-19.54.29-1.26L687.85,69l4.11-18,.69-3,6.16-26.88,2.42-10.56c1-4.12,3.63-6.29,8-6.29H738C743.09,4.36,745.51,7.26,744.3,12.34Z"/><path class="cls-7" d="M874.21,44.27a74.16,74.16,0,0,0-1.77-9.3c-2.26-8.78-6.32-16.73-13.51-22.81C850.12,4.68,836.6,0,815.92,0c-24.25,0-38.66,6.43-47.18,16.26-5.14,5.92-8.14,13.08-9.86,20.81a110.06,110.06,0,0,0-2.22,22.39c0,1.15,0,2.3,0,3.45v102.6c0,4.3,1.72,7,4.81,7.9a8.52,8.52,0,0,0,2.44.33h27.2a11.82,11.82,0,0,0,1.37-.09l.52-.07q5.26-.92,5.27-7.1v-21c0-.37,0-.72,0-1.06a6.73,6.73,0,0,1,1.89-4.4h0a6.62,6.62,0,0,1,.56-.47,7.93,7.93,0,0,1,4.77-1.32h20.81c.35,0,.69,0,1,0q6.24.48,6.24,7.22v21a7.27,7.27,0,0,0,2,5.49,6.54,6.54,0,0,0,.65.53l.07,0h0a8.14,8.14,0,0,0,4.58,1.19h27.1c4.84,0,7.26-2.9,7.26-8.23V62.91A146.19,146.19,0,0,0,874.21,44.27Zm-76,45V62.91a41.26,41.26,0,0,1,.54-7.71c.59-3.12,1.84-5.5,4.3-7.11a11.43,11.43,0,0,1,1.81-1c2.58-1.09,6.13-1.63,11-1.63,13.66,0,16.87,4.25,17.51,12.75.12,1.44.15,3,.15,4.67V89.05c0,.27,0,.52,0,.78a8.31,8.31,0,0,1-.82,3.32,5.33,5.33,0,0,1-1.21,1.6,8.17,8.17,0,0,1-5.21,1.8H805.51C800.92,96.55,798.25,93.89,798.25,89.29Z"/></g></g></svg>