<svg xmlns="http://www.w3.org/2000/svg" xmlns:xlink="http://www.w3.org/1999/xlink" viewBox="0 0 344.21 310.79"><defs><style>.cls-1{fill:url(#linear-gradient);}.cls-2{fill:#231f20;}</style><linearGradient id="linear-gradient" x1="-52.8" y1="-253.62" x2="291.9" y2="-253.62" gradientTransform="translate(-20.85 360.77) rotate(16.61)" gradientUnits="userSpaceOnUse"><stop offset="0.09" stop-color="#03e1ff"/><stop offset="0.5" stop-color="#00ffa3"/><stop offset="0.93" stop-color="#dc1fff"/></linearGradient></defs><g id="Layer_2" data-name="Layer 2"><g id="Layer_1-2" data-name="Layer 1"><path class="cls-1" d="M260.86,307.21a3.49,3.49,0,0,1-1.06-.16l-14.14-4.38a3.49,3.49,0,0,1-1.08,1.05,3.62,3.62,0,0,1-1.91.55,3.69,3.69,0,0,1-1.26-.23c-1.25-.47-2.47-1-4.33-1.82a3.7,3.7,0,0,1-1.14,1.46,3.65,3.65,0,0,1-2.15.71,3.69,3.69,0,0,1-.58,0,12.35,12.35,0,0,1-4.28-1.57,3.61,3.61,0,0,1-2.35.87,4,4,0,0,1-.76-.08,22.25,22.25,0,0,1-8.11-3.41,3.58,3.58,0,0,1-3.12,1.82,3.37,3.37,0,0,1-1.16-.2,17.93,17.93,0,0,1-7.09-4.82,3.64,3.64,0,0,1-1.83.5,3.38,3.38,0,0,1-.94-.13c-3.58-1-5.87-3.36-7.79-5.7a3.59,3.59,0,0,1-1.58.37,3.71,3.71,0,0,1-.93-.12,10.13,10.13,0,0,1-5.71-4.32,3.22,3.22,0,0,1-.6-.13,10.25,10.25,0,0,1-3.64-2.33c-1.28-1.15-2.41-2.37-3.5-3.56a3.63,3.63,0,0,1-1.41.29,3.53,3.53,0,0,1-2-.65,24.53,24.53,0,0,1-2.83-2.3,4,4,0,0,1-.14.57.08.08,0,0,0,0,0,9.48,9.48,0,0,1,1.56,3.15,3.53,3.53,0,0,1-.35,2.77,14.58,14.58,0,0,1,1,3,3.58,3.58,0,0,1-.54,2.84l0,.05.62,1.56a3.55,3.55,0,0,1-.14,2.94,1.05,1.05,0,0,1-.12.21,66,66,0,0,1,1.69,6.88,3.58,3.58,0,0,1-6.22,3L166.65,301h-.09a3.6,3.6,0,0,1-2.84-1.4l-.69-.94h-.32a3.61,3.61,0,0,1-2.36-.88,7.68,7.68,0,0,1-1.27-1.44,3.48,3.48,0,0,1-1.75-.93A13.85,13.85,0,0,1,155,292.5a3.57,3.57,0,0,1-2.66-1.32,10,10,0,0,1-1.85-3.64,3.56,3.56,0,0,1-1.12-.82,8.72,8.72,0,0,1-2.11-4.41,3.69,3.69,0,0,1-.85-.68,6.55,6.55,0,0,1-1.72-3.83,7,7,0,0,1-1.15-2.44c-.17-.58-.29-1.14-.41-1.68a3.31,3.31,0,0,1-.8-.65c-4.73,15.55-6.26,17.41-7,18.28a53.56,53.56,0,0,1-8.54,8.09,3.56,3.56,0,0,1-2.13.71,3.52,3.52,0,0,1-2.36-.9,3.58,3.58,0,0,1-.77-4.43c3.76-6.74,7.22-17.59,10-27.78l-.31,0a14.91,14.91,0,0,1-2.89,2.53,3.57,3.57,0,0,1-2,.6h-.16c-.39.39-.8.79-1.25,1.17a6.93,6.93,0,0,1-2.31,1.42,6.58,6.58,0,0,1-3.54,2.27,3.53,3.53,0,0,1-.85.1H118a8.64,8.64,0,0,1-4.18,2.54,3.24,3.24,0,0,1-.87.11,3,3,0,0,1-.52,0,9.85,9.85,0,0,1-3.54,2,3.7,3.7,0,0,1-1.09.17,3.58,3.58,0,0,1-1.86-.53,13.63,13.63,0,0,1-3.54,1.17,3.91,3.91,0,0,1-.68.06,3.57,3.57,0,0,1-1.3-.24,8.19,8.19,0,0,1-1.85.5,4.19,4.19,0,0,1-.5,0,3.56,3.56,0,0,1-2.21-.77h0l-1.08.4a3.5,3.5,0,0,1-1.19.2,3.58,3.58,0,0,1-2-.59l-.06,0-6.22,1.77A3.58,3.58,0,0,1,81.76,276a68.26,68.26,0,0,1,5.18-4.83,1.94,1.94,0,0,1,0-.24,3.56,3.56,0,0,1,1.5-2.53l1.37-1v-.06a3.59,3.59,0,0,1,1.11-2.67,13.47,13.47,0,0,1,2.49-1.9,3.52,3.52,0,0,1,1.22-2.52,9.27,9.27,0,0,1,2.78-1.67,7.88,7.88,0,0,1-1-.56l-.64.16c-1.63.4-3.32.81-5.09,1.09a23.07,23.07,0,0,1-3.22.39,4.05,4.05,0,0,1-3.07-1.27,21.28,21.28,0,0,1-4.5.58,10.73,10.73,0,0,1-4.71-1,3.52,3.52,0,0,1-1.07-.78,27.36,27.36,0,0,1-6.61.89,19.65,19.65,0,0,1-4.29-.46A3.55,3.55,0,0,1,60.93,256a20.88,20.88,0,0,1-5,.62,18.73,18.73,0,0,1-5.12-.71,3.57,3.57,0,0,1-2.15-1.71,3.63,3.63,0,0,1-.43-2.09l-1,0a16.36,16.36,0,0,1-7.51-1.69,3.59,3.59,0,0,1-1.86-2.31,3.63,3.63,0,0,1,0-1.88A23.76,23.76,0,0,1,30,243.42a3.58,3.58,0,0,1-1.74-2.31,3.48,3.48,0,0,1,.1-2l-5.94-2.24a3.6,3.6,0,0,1-2.09-2.08,3.65,3.65,0,0,1-.19-1.76,130.64,130.64,0,0,1-14.8-7.88,3.59,3.59,0,0,1,1.87-6.64l16.13.4a3.62,3.62,0,0,1,.8-1.48,3.57,3.57,0,0,1,2.66-1.19h.31c1.48.13,2.93.31,5.24.65a3.55,3.55,0,0,1,.73-2,3.59,3.59,0,0,1,2.44-1.39,13.86,13.86,0,0,1,1.43-.08,12.86,12.86,0,0,1,3.53.5,3.57,3.57,0,0,1,2.87-1.77c.61,0,1.23-.06,1.84-.06a22.22,22.22,0,0,1,7.68,1.28l0-.16a3.59,3.59,0,0,1,3.5-2.84h.21a19.23,19.23,0,0,1,8.78,3A3.56,3.56,0,0,1,68,212.16h.11c3.93,0,7,1.82,9.6,3.67a3.64,3.64,0,0,1,2.5-1.06h.13a10.71,10.71,0,0,1,6.93,2.8,3.81,3.81,0,0,1,.59,0H88a8.64,8.64,0,0,1,3,.69,3.41,3.41,0,0,1,.24-1,43.83,43.83,0,0,1-12.45-7.8,3.58,3.58,0,0,1-.5-4.73l-1.46-.85c-2.35-1.34-4.77-2.72-7.07-4.35a14.53,14.53,0,0,1-4.41-4.31,3.55,3.55,0,0,1-.48-1.45c-3.1-1.21-6.73-2.84-8.9-7a3.56,3.56,0,0,1,.54-4.09c-5-2.41-10.08-4.9-13-10.49a3.58,3.58,0,0,1,.73-4.3c-4.23-2.44-8.48-5.13-11.53-10a3.58,3.58,0,0,1,.72-4.61l2-1.67a32.65,32.65,0,0,1-9.92-12.74,3.6,3.6,0,0,1,1.21-4.46,18.57,18.57,0,0,1-5.09-7,3.56,3.56,0,0,1,2.12-4.71l1.34-.48c-3.07-4.07-4.66-6.24-6.16-8.51a3.58,3.58,0,0,1,1.64-5.28l.14-.1L7.4,85.31a3.58,3.58,0,0,1,4.89-4.89A189.41,189.41,0,0,1,35,95.55l.09-.15a3.61,3.61,0,0,1,2.5-1.57,4,4,0,0,1,.49,0,3.63,3.63,0,0,1,2.34.87l9.08,7.85.42-.82a3.54,3.54,0,0,1,2.24-1.83,3.4,3.4,0,0,1,.95-.13,3.59,3.59,0,0,1,1.91.55,33.86,33.86,0,0,1,10.78,10.5l.59-1.16a3.58,3.58,0,0,1,2.32-1.84,3.7,3.7,0,0,1,.87-.11,3.57,3.57,0,0,1,2,.64c4.63,3.22,7.11,7.46,9,11.9.39-.41.8-.82,1.23-1.24a3.57,3.57,0,0,1,2.51-1h0A3.56,3.56,0,0,1,86.84,119a28.61,28.61,0,0,1,7.46,14.36,3.66,3.66,0,0,1,1.13-.18,3.58,3.58,0,0,1,2.71,1.24c4,4.66,6,9.85,7.32,15.54h.15a3.56,3.56,0,0,1,2.11.68c4.33,3.16,5.73,8,7,12.25V163c3.07,0,3.83,2.1,5.48,6.71.92,2.57,1.59,5.1,2.23,7.56l.48,1.8c1.67.84,3.67,2.21,4.37,4.48.79,2.61,1.39,5.27,1.93,7.88a5.7,5.7,0,0,1,.8-1.46,6.29,6.29,0,0,1,2.07-1.8c-.26-1.23-.53-2.46-.8-3.69-.86-3.9-1.75-7.93-2.25-12-.31-2.53,1-4.71,2.64-6.69l-.39-2.49c-.48-3-1-6.07-1.2-9.21-.41-5.57-.62-8.53,2.81-9.56l-.18-1.26c-.66-4.7-1.41-10,1.67-15.65a3.55,3.55,0,0,1,2.35-1.78c-1.3-6.6-2-13.09.19-20.14a3.58,3.58,0,0,1,3.42-2.54,3.36,3.36,0,0,1,.63.06c-1.5-6.93-1.65-13.29.87-20a3.6,3.6,0,0,1,3.35-2.32,3.7,3.7,0,0,1,1.27.23c1,.4,2,.75,3,1.1-.26-6,.22-12.15,3.87-18.15a3.56,3.56,0,0,1,2.44-1.67,3.24,3.24,0,0,1,.62,0,3.52,3.52,0,0,1,2.25.8l2.16,1.75a39.36,39.36,0,0,1,6.72-17.57,3.6,3.6,0,0,1,2.45-1.55,4.73,4.73,0,0,1,.53,0,3.54,3.54,0,0,1,2.26.81l1.53,1.25L180.76,34A3.56,3.56,0,0,1,183,32.12a3.76,3.76,0,0,1,1-.14,3.59,3.59,0,0,1,1.93.57l.8.51a226.45,226.45,0,0,1,17.72-28,3.59,3.59,0,0,1,2.89-1.47,3.64,3.64,0,0,1,1.29.24,3.58,3.58,0,0,1,2.27,3.72l-3.4,32c.36.09.72.18.92.21h.16a3.57,3.57,0,0,1,3.53,4.17c-.55,3.34-1.28,6.62-2.79,13.09l2.62-.21h.27a3.59,3.59,0,0,1,3.58,3.47,22,22,0,0,1-2.46,10.55h.33a3.58,3.58,0,0,1,3.48,3.64c-.15,7.4-1.83,13.84-4.91,18.93L216,94.46a3.59,3.59,0,0,1,2.52,4c-1.09,7.4-4.7,12.39-8.23,17.19l.76.23a3.56,3.56,0,0,1,2.54,3.73c-.64,7.62-4.89,12.58-9,17.37l-.66.76.81.33a3.59,3.59,0,0,1,2.22,3.56c-.37,5.51-3.67,9-6.46,11.77a3.5,3.5,0,0,1,.3,1.9,16.68,16.68,0,0,1-2.64,6.55c-1.71,2.87-3.68,5.55-5.58,8.14l-1.62,2.21.65.37a3.58,3.58,0,0,1,1.46,4.54,52.22,52.22,0,0,1-10.17,14.86,3.57,3.57,0,0,1,.79,5.2l-3,3.71c-2,2.48-3.93,4.86-5.8,7.24a3.85,3.85,0,0,1,.42,1h.19a6,6,0,0,1,2.05.37c.61-.69,1.2-1.39,1.8-2.09,2.2-2.54,4.46-5.17,7-7.58a7.23,7.23,0,0,1,5.26-1.79l.73,0,1.3-1.34c1.76-1.82,3.59-3.7,5.6-5.45,3.41-3,4.31-3.75,6.12-3.75a4,4,0,0,1,2,.53l0-.05c3.16-3.11,6.74-6.64,12.06-7.27a3,3,0,0,1,.42,0,3.5,3.5,0,0,1,1.88.54c4-4.3,8.2-7.88,14-10a3.44,3.44,0,0,1,1.21-.22,3.57,3.57,0,0,1,2.64,1.17,28.73,28.73,0,0,1,13.54-8.88,3.83,3.83,0,0,1,1-.14,3.52,3.52,0,0,1,1.73.45,3.55,3.55,0,0,1,1.71,2.14c.17.58.32,1.13.47,1.68,3.78-3,8-5.45,13.62-6H272a3.58,3.58,0,0,1,3.58,3.71l-.05,1.31A33.72,33.72,0,0,1,290,162.51h.18a3.59,3.59,0,0,1,3.58,3.73l0,.92,11.76-2.4a3.51,3.51,0,0,1,.72-.07,3.57,3.57,0,0,1,3.57,3.32v.17a189.51,189.51,0,0,1,27.18-2.1h.05a3.58,3.58,0,0,1,1.83,6.65l-22.75,13.54a1.38,1.38,0,0,0,.08.17,3.58,3.58,0,0,1-1.16,5.4c-2.42,1.25-4.86,2.36-9.53,4.41l.94,1.07a3.58,3.58,0,0,1,.86,2.68,3.54,3.54,0,0,1-1.32,2.47,18.6,18.6,0,0,1-7.88,3.64,3.57,3.57,0,0,1-1.12,4.47,32.06,32.06,0,0,1-14.89,6.27l.89,2.41a3.56,3.56,0,0,1-1.62,4.37c-5.07,2.81-10.09,3.06-15,3.13a3.57,3.57,0,0,1-1.48,4.11,20.74,20.74,0,0,1-11.62,2.95c-1.64,0-3.29-.1-4.88-.19a3.57,3.57,0,0,1-1.54,3.83,12.89,12.89,0,0,1-7.27,2.06,28.6,28.6,0,0,1-3.9-.33,3.69,3.69,0,0,1-1.12,1,15,15,0,0,1-6,1.6c-2.8.29-5.59.32-8.29.34l-1.69,0a3.58,3.58,0,0,1-2.75,3.88,40.3,40.3,0,0,1-9.23,1,52.17,52.17,0,0,1-5.45-.3,3.55,3.55,0,0,1-.84,1.86,3.62,3.62,0,0,1-1.36,1,3.56,3.56,0,0,1,1.86,1.6c2.59.18,5.61.58,8.13,2.78a3.45,3.45,0,0,1,.75.92,22.13,22.13,0,0,1,9.87,2.4,3.58,3.58,0,0,1,1.7,2,18.57,18.57,0,0,1,9,2.7,3.58,3.58,0,0,1,1.6,2.22,3.63,3.63,0,0,1-.07,1.88,15.75,15.75,0,0,1,7,3.65,3.6,3.6,0,0,1,1.16,2.72,3.51,3.51,0,0,1-.4,1.57,22.67,22.67,0,0,1,6.26,4.51,3.57,3.57,0,0,1,1,2.7,3.61,3.61,0,0,1-.5,1.67l4.58,3.39a3.58,3.58,0,0,1,1.44,2.58,3.53,3.53,0,0,1-.22,1.58,119.7,119.7,0,0,1,11.17,10.75,3.58,3.58,0,0,1-2.62,6Z"/><path class="cls-2" d="M207.33,7.16,203.6,42.33h.11c1,0,3.51,1,4.69,1h.17c-.66,4-1.59,7.93-3.87,17.63,2.5-.18,4.82-.39,7.5-.59.17,5.32-2.17,9.36-5,14l2.18,0h1.74l2.44,0c-.15,7.74-2.11,15.47-7.29,21l8.68,2.58c-1.24,8.42-6.23,13.38-10.53,19.71l5.58,1.67c-.73,8.57-7,13.41-11.9,19.91l5.26,2.17c-.41,6-5.34,8.86-8.59,12.84.35.08,2.09.57,2.45.65a14,14,0,0,1-2.16,5.14c-2.32,3.88-5.17,7.45-7.8,11.16-.46.65-.85,1.36-1.37,2.21l3.88,2.27c-2.95,6.67-7.45,12.11-12.9,17.23l4,2c-3.74,4.65-7.29,9-10.69,13.39-.75,1,2.12,1,1.61,2.16-1.22,2.81-4.9,5-6.53,7.59s-1.1,2.18-2.07,5.3a12,12,0,0,1-1.92,3.34l.12-.13c1-1.06,2.66-1.52,3.93-2.38a7.39,7.39,0,0,0,1.48-1.66c2.23-2.94,4.34-6,6.71-8.81a2.57,2.57,0,0,1,2-1.06,4,4,0,0,1,2.79,1.66c.58-.77,1-1.41,1.48-2,3-3.37,5.8-6.89,9-10a4,4,0,0,1,2.79-.79,17.87,17.87,0,0,1,2.09.15c2.63-2.61,5.09-5.37,7.89-7.8,2.52-2.19,3.3-2.87,3.77-2.87s.62.65,1.85,1.18a.48.48,0,0,0,.18,0,4.43,4.43,0,0,0,2.06-1.31c3-3,6.11-6.2,10.43-6.72l1.17,3.17c4.51-5.27,9.09-10.35,15.92-12.81.6,1.63,1.05,2.83,1.72,4.66,3.74-5.62,8.57-10.52,15.46-12.52.72,2.48,1.19,4.61,1.91,7.09,4.8-4.24,9.34-8.19,16-8.83-.11,2.9-.21,5.44-.33,8.39a29.86,29.86,0,0,1,18.57-7.27c-.09,2.32-.17,4.09-.22,5.49l16.24-3.31c.14,2,.23,3.1.3,4.09a182.25,182.25,0,0,1,30.51-2.7l-25.5,15.17c.52.55,1.21,3.14,1.85,3.83-3,1.55-6.13,2.92-13.79,6.27l4.15,4.75c-3.48,2.78-7.42,3.26-11.94,3.67,1,1.48,1.95,2.71,3.08,4.33-4.76,3.42-10.07,5.78-16,5.78-.64,0-1.27,0-1.92-.08l2.63,7.12c-5.9,3.26-12,2.5-18.33,2.78.52,1.43,1,2.78,1.68,4.58a17.29,17.29,0,0,1-9.7,2.38c-3.11,0-6.35-.38-9.6-.38.41,1.57.83,3,1.25,4.6a9.39,9.39,0,0,1-5.33,1.48c-2.54,0-5.09-.68-7.61-.79.12.28.67,1.69.79,2a11.74,11.74,0,0,1-4.53,1.14c-3.78.39-7.61.27-11.42.37-.67,0-1.35.12-2.17.19.14,1.26.26,2.32.42,3.75a37,37,0,0,1-8.42.93,55.06,55.06,0,0,1-9.63-.93c.21,1.26.36,2.1.64,3.72-5-.18-9.68-.39-14.37-.45h0c-1,0,.42,1.92-.62,2.17a6.2,6.2,0,0,1-1.45.15c-2.07,0-4.43-.74-6.41-.74a4.43,4.43,0,0,0-.52,0,7,7,0,0,0-2.69.52c1-.09,1.94-.16,2.91-.2h.09c1.29,0,1.75,1,1.57,2.4.59-.06,1-.14,1.5-.14,1.68,0,3.37-.08,5.05-.08,1,0,2.09,0,3.12.1.87.06,1.66,1.07,2.27,1.94,2.25.12,4.49.11,6.73.38,4,.49,2.51.31,3,1.85.11.32,1,.46,1.49.49,2.56.16,5.28.24,7.27,2l-1,1.82c.79,0,1.58,0,2.36,0a20.3,20.3,0,0,1,9.9,2c-.5.93-.86,1.62-1.41,2.67a25.65,25.65,0,0,1,3.71-.29,15.27,15.27,0,0,1,8.22,2.18c-.83,1.33-1.6,2.41-2.42,3.74,3.86.44,7.49.88,10.47,3.61l-3.92,3.27a18.12,18.12,0,0,1,10.83,5.42l-2.57,2.13,8.09,6-1.72,1.8a110.73,110.73,0,0,1,13.62,12.66l-17.21-5.33c0,.45-.93,1.82-1,2.39-1.91-.72-3.81-1.58-8.43-3.67l-.45,3.79c-2.68-.43-4.49-2-6.51-3.89-.25,1.07-.43,2-.7,3.15-3.85-.84-7.39-2.51-9.84-5.75l-2.14,4.08c-3.87-1.34-6-4.39-8.7-7.14l-1.39,2.62c-4-1.09-6-4.82-8.74-7.89-.54.82-1,1.6-1.57,2.43-2.95-.79-3.9-3.54-5.57-5.56-.07.17-.49,1-.57,1.16a7.15,7.15,0,0,1-2.35-1.58c-1.72-1.55-3.22-3.33-4.81-5-.28-.3-.6-.56-1-.9l-1.52,1.71a27.21,27.21,0,0,1-7.34-8.14c-.48.61-.8,1-1.41,1.8-2-2.33-3.76-4.53-5.63-6.67a.22.22,0,0,0-.18-.09c-.28,0-.52.75-.88.75a.32.32,0,0,1-.18-.06c-1.29-.89-2-2.94-3.15-4s-1-.76-2.43-1.56a6.72,6.72,0,0,1-1.75-1.6l-.41,1.36.65.44c.35.26.42.91.45,1.44.93.66,1.9,1.25,2.79,2,1.58,1.27,1,.8.81,1.6,0,.17.29.46.51.61a5.85,5.85,0,0,1,2.6,2.79l-.9.53a11.84,11.84,0,0,1,4.73,4.12l-1.31.77a8.64,8.64,0,0,1,4.61,4c-.71.35-1.32.61-2,.95,1.54,1.23,3,2.39,3.53,4.36l-2.56.35a9.13,9.13,0,0,1,3.2,5.22l-1.67.23,1.88,4.73-1.22.31a56.52,56.52,0,0,1,2.46,9.08l-6-6.89c-.14.18-.88.53-1.06.77-.63-.82-1.21-1.7-2.64-3.84-.4.51-.77,1-1.21,1.52a6.39,6.39,0,0,1-1.75-3.42l-1.14,1.17a8.1,8.1,0,0,1-2.69-5.1l-2,1.18c-1.31-1.6-1.41-3.49-1.83-5.39l-1.3.76c-1.42-1.54-1.28-3.67-1.64-5.73l-1.33.63c-1.05-1.13-.73-2.56-.9-3.88l-.56.35a3.68,3.68,0,0,1-.59-1.31c-.32-1.12-.49-2.29-.72-3.43-.05-.2-.11-.4-.18-.65l-1.11.33a13.7,13.7,0,0,1-1-5.45l-1.08.39c-.22-1.52-.41-3-.64-4.36,0-.08,0-.1-.11-.1h-.06c-3.25,11.47-7.52,25.53-9.5,28a51.29,51.29,0,0,1-7.91,7.48c5.29-9.49,9.95-26.55,12.88-39a1.48,1.48,0,0,1-.31.22c-.75.38-.66.22-1.25.76s-1,1.55-1.64,2a.15.15,0,0,1-.09,0c-.18,0-.3-.39-.44-.39a.14.14,0,0,0-.09.05c-1,1.06-1.91,2.15-2.93,3.3l-.69-.92a13.69,13.69,0,0,1-3.8,4l-.75-.89c-.19.17-.36.3-.5.45-.83.83-1.61,1.71-2.49,2.47a3.63,3.63,0,0,1-1.21.77c0-.09-.24-.51-.27-.59-.87,1-1.39,2.38-2.89,2.74l-.76-1.25c-1.44,1.52-2.48,3.38-4.52,3.89l-.66-1.34c-1.4,1.36-2.52,2.88-4.49,3.51l-1-2.09a8.16,8.16,0,0,1-5,2.79c-.12-.6-.2-1.06-.31-1.6a6.38,6.38,0,0,1-3.34,1.89c-.06-.69-.12-1.28-.18-1.93-2.36,1-3.33,1.42-4.31,1.76,0-.29-.45-1-.46-1.22l-8.77,2.5a55.18,55.18,0,0,1,7-6.24l-.85-.94,4.16-2.92c-.32-.29-.73-.64-1.27-1.11a9.12,9.12,0,0,1,5.53-2.61L97,262.93c1.54-1.34,3.38-1.53,5.34-1.71-.4-.68-.78-1.23-1.18-1.91a7.57,7.57,0,0,1,3.94-1,12.54,12.54,0,0,1,2.11.19l-.68-1.37a9.69,9.69,0,0,1,4.49-.9c.57,0,1.15,0,1.73,0l-.46-.93a5.91,5.91,0,0,1,3.7-.91c.27,0,.7-.07.75-.23.29-.78-.46-.7,1.57-.9,1.13-.11,2.27-.08,3.4-.12.32-.43.73-.93,1.17-1s.62,0,.93,0c.58,0,1.15,0,1.73,0l-1.43-.42.1-.35-.67.17a3.47,3.47,0,0,1-.79.08c-.67,0-1.38-.13-2.06-.13h-.14a4.69,4.69,0,0,0-1.39.4c-2.25.84-4.46,1.79-6.75,2.52a2.17,2.17,0,0,1-.68.12c-1,0-1.53-.81-1.73-2.1-.59.23-1,.44-1.5.58-2.8.82-5.57,1.78-8.43,2.36a1.24,1.24,0,0,1-.27,0,5,5,0,0,1-2.63-1.36c-2.35.52-4.66,1.19-7,1.56a24.43,24.43,0,0,1-2.68.35c-.8,0-.35-.43-1-1.37a.85.85,0,0,0-.67-.19,5.27,5.27,0,0,0-1,.12,23.54,23.54,0,0,1-4.89.75,7.28,7.28,0,0,1-3.18-.67c.15-.67.28-1.28.46-2.15a32.51,32.51,0,0,1-9.67,1.92,15.89,15.89,0,0,1-3.53-.38c.23-1.1.41-1.92.67-3.16A21.38,21.38,0,0,1,55.92,253a15,15,0,0,1-4.14-.57c.47-1.62.95-3,1.41-4.56a37.41,37.41,0,0,1-5.94.64,12.88,12.88,0,0,1-5.91-1.31l3.09-4.51a22.56,22.56,0,0,1-3,.21,19.47,19.47,0,0,1-9.72-2.64c.86-1.25,1.51-2.2,2-2.94l-10.09-3.81,1.25-2.35a119.21,119.21,0,0,1-17.72-9.08l19.29.48c-.1-.48.42-2.15.3-2.75,2.18.18,4.39.52,9.76,1.33-.21-1.35-.41-2.6-.63-4.05a9,9,0,0,1,1-.06c2.43,0,4.5,1,6.82,2.17-.06-1.17-.14-2.16-.2-3.45.54,0,1.08,0,1.62,0a16.4,16.4,0,0,1,10.19,3.11c.37-1.75.68-3.2,1-4.83,4.37.25,7.46,2.78,11,4.82.21-1,.41-1.88.66-3.1h.08c4.39,0,7.51,3.23,11.24,5.58.31-1,.59-1.95.91-3h.08c3.21,0,5,2.53,7.27,4.11,0-.2.22-1.17.25-1.36a7.57,7.57,0,0,1,2.89.94c2.22,1.09,4.28,2.49,6.41,3.75.38.22.78.4,1.26.65l1.07-2.21a29,29,0,0,1,9.94,6.25c.2-.5.36-.89.56-1.37a9.83,9.83,0,0,1-3.22-1.75c-.79-.73,1.41-1.7.51-2.2-4.11-2.24-8.3-4.33-12.75-6.63l2.38-2.93c-5.93-2.08-11.23-4.72-15.75-8.83l2.2-3.06c-.68-.47-1.22-.89-1.8-1.23-3.27-1.95-6.67-3.72-9.77-5.91a11.52,11.52,0,0,1-3.4-3.21c.24-.19,1.41-1.15,1.66-1.33-3.85-1.95-8.61-2.49-10.95-6.93,1.13-1.18,2.21-2.24,3.33-3.41-5.94-3.33-12.64-5.17-15.85-11.19l3.71-3.17C44.92,164,39.24,161.67,35.69,156L41.46,151c-6.09-2.76-10.06-7.84-12.8-13.72,1.78-.86,3.17-1.49,4.8-2.27-3.74-2.57-6.94-4.91-8.61-9l5.94-2.11c-5-6.67-7.12-9.41-9-12.22.9-.28,2.77-2.2,3.49-2.43L10.5,83.52A182.61,182.61,0,0,1,35.78,100.8l2.27-3.42,12.54,10.83c.64-1.24,1.44-2.82,2.49-4.89a29.8,29.8,0,0,1,12.64,15.42l3.83-7.48c5.46,3.81,7.49,9.47,9.6,15.52,1.84-1.81,3.3-3.44,5.13-5.25,5,5.12,6.86,11.75,7.36,18.48l3.79-3.23c4.75,5.5,6.26,12.16,7.61,19l2.57-2.19c3.52,2.56,4.63,6.9,5.82,10.95.24.86.78,2.16,1.32,2.22a4.27,4.27,0,0,0,.49,0,11.54,11.54,0,0,0,1.46-.2c.55,0,.79.67,2.13,4.4,1.25,3.49,2,7.11,3.06,10.67,1.61.67,3.52,1.57,3.94,2.94,1.31,4.28,2,8.74,3,13.13.15.73.19,1.48.32,2.45a5.74,5.74,0,0,1,1.94-.4,2.38,2.38,0,0,1,2.5,2.2c.69,3.62,1,7.31,1.55,11a7.44,7.44,0,0,0,.48,2.18c.69,1.37,1.89,2.57,2.27,4,.94,3.54,1.8,7.1,2.61,10.68l.14,0c-.95-4.77-1.8-9.58-2.56-14.36-.27-1.75.45-3.63.54-5.46a8.54,8.54,0,0,0-.53-2.6c-1.2-4.23-2.6-8.42-3.6-12.7-.61-2.59,1.08-3.91,4-4.11-.33-1.11-.64-1.95-.82-2.82-1.1-5.25-2.43-10.46-3.08-15.76-.2-1.7,1.45-3.61,2.88-5.11-.61-4.38-1.49-8.71-1.81-13.11-.58-7.88-.37-5,2.41-6.59.56-.33.53-2,.39-3.09-.67-5-1.69-9.78,1.06-14.81l3.87,1.15c-1.8-8.15-3.5-15.69-1-23.74l5.68,1.69c-2.47-8.35-3.84-15.93-.83-23.94,2.88,1.09,5.33,1.92,8.2,3-.61-7.62-1.13-14.77,3-21.55l7.78,6.31a35.51,35.51,0,0,1,6.33-22.92l5.07,4.14c2.78-5.88,5.54-11.7,8.45-17.87l4.12,2.64a218.23,218.23,0,0,1,19.22-31M337.05,169.65h0M207.33,0a7.16,7.16,0,0,0-5.79,2.94,236.82,236.82,0,0,0-16.43,25.55A7,7,0,0,0,184,28.4a7.45,7.45,0,0,0-2,.28,7.18,7.18,0,0,0-4.49,3.82l-4.74,10a7,7,0,0,0-2.31-.39,7.56,7.56,0,0,0-1.06.08,7.16,7.16,0,0,0-4.89,3.1A44.31,44.31,0,0,0,158.23,59a7,7,0,0,0-1.87-.25,7.29,7.29,0,0,0-1.23.1,7.15,7.15,0,0,0-4.89,3.34,31.13,31.13,0,0,0-4.39,15.13c-.22,0-.45,0-.68,0a7,7,0,0,0-2.94.64,7.13,7.13,0,0,0-3.76,4,36,36,0,0,0-1.66,18.52,7.13,7.13,0,0,0-3.34,4.16c-2.08,6.83-1.76,13.2-.74,19.33a7.13,7.13,0,0,0-1.51,1.91c-3.39,6.17-2.88,12-2.23,16.76a8.36,8.36,0,0,0-2.7,5.27,35.09,35.09,0,0,0,.2,6.38c.24,3.33.75,6.5,1.23,9.55.06.32.11.63.15.94a11.62,11.62,0,0,0-2.42,8.11c.16,1.3.36,2.58.57,3.85l-.06,0-.09-.34c-.66-2.52-1.35-5.13-2.3-7.78l0-.07c-.75-2.09-1.16-3.24-1.6-4.17a8.15,8.15,0,0,0-4.41-4.37c-1.25-4-3.16-8.84-7.71-12.16a6.81,6.81,0,0,0-1.46-.82,36.88,36.88,0,0,0-7.53-14.85,7.07,7.07,0,0,0-3.76-2.28,31.18,31.18,0,0,0-7.69-13.31,7.12,7.12,0,0,0-5-2.14h-.06a7.32,7.32,0,0,0-2.37.4,26.84,26.84,0,0,0-8.27-9.39,7.17,7.17,0,0,0-4.09-1.28,7.39,7.39,0,0,0-1.74.21,6.89,6.89,0,0,0-1.82.74,38.89,38.89,0,0,0-9.08-7.78,7.22,7.22,0,0,0-5.73-.86,7.36,7.36,0,0,0-2.14,1L42.73,92a7.16,7.16,0,0,0-4.68-1.74,6.46,6.46,0,0,0-1,.07,6.88,6.88,0,0,0-2.19.67,201.84,201.84,0,0,0-20.8-13.64A7.15,7.15,0,0,0,4.3,87.09L16,107.46a7,7,0,0,0-1,1.82,7.18,7.18,0,0,0,.77,6.32c1.09,1.65,2.2,3.22,3.84,5.43a7.23,7.23,0,0,0-1.36,2,7.14,7.14,0,0,0-.11,5.61A21.06,21.06,0,0,0,22,134.73a7.16,7.16,0,0,0,.2,5.59A38.39,38.39,0,0,0,30,151.66a7.16,7.16,0,0,0-.35,8.06,29.7,29.7,0,0,0,10,9.56,7.12,7.12,0,0,0,.73,4.59c2.87,5.39,7.33,8.3,11.71,10.56a7.14,7.14,0,0,0,.79,4,17.63,17.63,0,0,0,9.15,8,4.3,4.3,0,0,0,.32.6,17.79,17.79,0,0,0,5.42,5.41c2.11,1.49,4.26,2.76,6.36,4a7.15,7.15,0,0,0,.75,3.6,16.59,16.59,0,0,0-6.65-1.4H68a7.05,7.05,0,0,0-2.89.64,20.93,20.93,0,0,0-8.35-2.35h-.41a7.17,7.17,0,0,0-5.29,2.34,27.56,27.56,0,0,0-5.92-.62c-.67,0-1.37,0-2.07.07a7.1,7.1,0,0,0-3.86,1.43,15.69,15.69,0,0,0-2.31-.17h0a16.22,16.22,0,0,0-1.84.11,7.16,7.16,0,0,0-4.88,2.77L30,213c-1-.12-1.82-.21-2.67-.28l-.61,0a7.13,7.13,0,0,0-5.31,2.37,2.62,2.62,0,0,0-.22.25L7.34,215H7.16a7.16,7.16,0,0,0-3.73,13.27,134.6,134.6,0,0,0,13.3,7.23q.09.31.21.63a7.11,7.11,0,0,0,4.17,4.16l3.54,1.34c0,.11.05.22.07.34a7.17,7.17,0,0,0,3.49,4.62,28.55,28.55,0,0,0,6.24,2.61,7.19,7.19,0,0,0,3.68,4.48,19.7,19.7,0,0,0,7.23,2l.16.29a7.12,7.12,0,0,0,4.29,3.42,22,22,0,0,0,6.11.85,23.73,23.73,0,0,0,3.83-.31,7.1,7.1,0,0,0,2.68,1.2,23.62,23.62,0,0,0,5.06.54,29,29,0,0,0,5.82-.62,2.53,2.53,0,0,0,.33.16,14.4,14.4,0,0,0,6.24,1.36,21.61,21.61,0,0,0,3.62-.34,7.91,7.91,0,0,0,4,1h0a7.3,7.3,0,0,0-1,2.12l-.1.08a7.19,7.19,0,0,0-2.74,3.79c-1.47,1.28-3,2.69-4.47,4.25a7.17,7.17,0,0,0,5.14,12.15,7,7,0,0,0,2-.28l4.92-1.39a7.28,7.28,0,0,0,4.35.11,7,7,0,0,0,2.49.45,6.59,6.59,0,0,0,1-.07,11,11,0,0,0,1.5-.31,7.46,7.46,0,0,0,1.16.09,7,7,0,0,0,1.36-.13,18.23,18.23,0,0,0,2.91-.81,6.92,6.92,0,0,0,1.81.24,7.13,7.13,0,0,0,2.18-.34,13.07,13.07,0,0,0,3.68-1.86,9.09,9.09,0,0,0,1-.18,11.69,11.69,0,0,0,4.85-2.55l.4-.08a9.91,9.91,0,0,0,4.79-2.74c.23-.11.45-.22.65-.34-2.38,7.67-4.74,13.7-6.92,17.62a7.16,7.16,0,0,0,10.51,9.24,58.63,58.63,0,0,0,9.18-8.69c.81-1,2-2.43,4.78-10.61a9.87,9.87,0,0,0,.9,1.1,3.83,3.83,0,0,0,.28.29,11.76,11.76,0,0,0,2.66,4.78,6.33,6.33,0,0,0,.76.71,13.25,13.25,0,0,0,2.06,3.58,7.21,7.21,0,0,0,3.27,2.27,19,19,0,0,0,2,2.27,7.09,7.09,0,0,0,2.08,1.41,12.23,12.23,0,0,0,1.08,1.08,7.23,7.23,0,0,0,3.14,1.6,7.12,7.12,0,0,0,3.7,2.28l3.34,3.86a7.15,7.15,0,0,0,12.44-6c-.41-2.14-.87-4.13-1.4-6a7.17,7.17,0,0,0-.22-4.68l0-.11a7.21,7.21,0,0,0,.15-3.83,18.27,18.27,0,0,0-.63-2.14h.06c.74.78,1.52,1.57,2.38,2.34a14,14,0,0,0,4.52,2.93,13,13,0,0,0,6.91,4.65,7,7,0,0,0,1.86.25h.27a17.28,17.28,0,0,0,8.15,5.21,6.89,6.89,0,0,0,1.89.26,7.58,7.58,0,0,0,.84-.05,20,20,0,0,0,6.91,4.18,7.3,7.3,0,0,0,2.33.39,7.23,7.23,0,0,0,3.56-.94,27.5,27.5,0,0,0,6.91,2.45,7.23,7.23,0,0,0,1.53.16,6.93,6.93,0,0,0,2.4-.42,15.64,15.64,0,0,0,3.64,1.07,7.46,7.46,0,0,0,1.16.09,7.17,7.17,0,0,0,4.27-1.41c.75.31,1.41.57,2.09.83a7.16,7.16,0,0,0,6.34-.64l.08-.05,12.17,3.77a7,7,0,0,0,2.12.32,7.16,7.16,0,0,0,5.25-12,124,124,0,0,0-10-9.77c0-.15,0-.3,0-.44a7.19,7.19,0,0,0-2.88-5.15l-2.64-1.94v-.08a7.21,7.21,0,0,0-2.09-5.4,27.73,27.73,0,0,0-4.81-3.85,7.18,7.18,0,0,0-2.33-5.05,18.4,18.4,0,0,0-5.89-3.64l0-.06a7.14,7.14,0,0,0-3.2-4.46,21.54,21.54,0,0,0-8.79-3.05,7.13,7.13,0,0,0-2.13-1.74,24.77,24.77,0,0,0-9.81-2.72l-.14-.14c-.33-.28-.65-.54-1-.77a42.71,42.71,0,0,0,6.31-1,7.16,7.16,0,0,0,4.82-3.82c2.42,0,4.92-.08,7.49-.35a18.35,18.35,0,0,0,7.37-2.06c.2-.12.39-.24.57-.37a25.08,25.08,0,0,0,2.66.15,16.41,16.41,0,0,0,9.22-2.63,7.14,7.14,0,0,0,2.65-3.1c.6,0,1.2,0,1.81,0a24.49,24.49,0,0,0,13.57-3.52,7.09,7.09,0,0,0,2.88-3.64,29.83,29.83,0,0,0,13.36-3.47,7.15,7.15,0,0,0,3.63-7.21,38.6,38.6,0,0,0,12.35-6.07,7.18,7.18,0,0,0,2.9-4.78,21.07,21.07,0,0,0,6.24-3.45,7.12,7.12,0,0,0,2.66-4.94,7.39,7.39,0,0,0-.2-2.44c2.51-1.13,4.25-2,6-2.86a7.12,7.12,0,0,0,3.81-7.19l20.07-11.95a7.15,7.15,0,0,0-3.53-13.38h-.13a198.88,198.88,0,0,0-24.77,1.72,7.36,7.36,0,0,0-1.59-1.66,7.14,7.14,0,0,0-4.32-1.45,6.87,6.87,0,0,0-1.43.14l-8.17,1.67a7.14,7.14,0,0,0-6.42-4h-.38a38.87,38.87,0,0,0-11.72,2.35,7,7,0,0,0-1.23-1.53A7.15,7.15,0,0,0,272,157.8l-.7,0a26.54,26.54,0,0,0-11.8,4.14,7.17,7.17,0,0,0-5.38-2.43,7.09,7.09,0,0,0-2,.28,31.3,31.3,0,0,0-13.23,7.85,7,7,0,0,0-4.39.15,36.85,36.85,0,0,0-13.83,9.27,7.52,7.52,0,0,0-.82-.05,8.27,8.27,0,0,0-.86.05c-5.58.67-9.61,3.93-12.66,6.83a8.55,8.55,0,0,0-1-.06c-3.15,0-4.8,1.43-8.42,4.58l0,.05c-2.12,1.84-4,3.78-5.82,5.66l-.24.25a12.55,12.55,0,0,0-2.76.43,7.84,7.84,0,0,0-.16-1.44,7.6,7.6,0,0,0-.38-1.23,53.65,53.65,0,0,0,8.83-13.64,7.14,7.14,0,0,0-.59-6.86c1.86-2.53,3.77-5.15,5.48-8a20.17,20.17,0,0,0,3.12-8,6.8,6.8,0,0,0,0-1.19c2.77-2.93,5.74-6.83,6.13-12.67a7.15,7.15,0,0,0-1.38-4.73c3.72-4.48,7.37-9.71,8-17.23a7.14,7.14,0,0,0-1.72-5.29A36,36,0,0,0,222,98.94a7.15,7.15,0,0,0-4.66-7.78,44.08,44.08,0,0,0,3.35-16.67A7.13,7.13,0,0,0,218,68.77a24,24,0,0,0,1.34-8.67,7.16,7.16,0,0,0-5.54-6.74c.87-3.82,1.39-6.33,1.82-8.89a7.18,7.18,0,0,0-1.86-6.09,7,7,0,0,0-2.39-1.67l3.06-28.79A7.17,7.17,0,0,0,207.33,0Zm0,14.32h0Z"/></g></g></svg>