<svg xmlns="http://www.w3.org/2000/svg" xmlns:xlink="http://www.w3.org/1999/xlink" viewBox="0 0 329.89 296.47"><defs><style>.cls-1{fill:url(#linear-gradient);}</style><linearGradient id="linear-gradient" x1="-56.38" y1="-260.78" x2="281.16" y2="-260.78" gradientTransform="translate(-23.19 362.52) rotate(16.61)" gradientUnits="userSpaceOnUse"><stop offset="0.09" stop-color="#03e1ff"/><stop offset="0.5" stop-color="#00ffa3"/><stop offset="0.93" stop-color="#dc1fff"/></linearGradient></defs><g id="Layer_2" data-name="Layer 2"><g id="Layer_1-2" data-name="Layer 1"><path class="cls-1" d="M304.39,177.66l25.5-15.17a182.25,182.25,0,0,0-30.51,2.7c-.07-1-.16-2.15-.3-4.09l-16.24,3.31c.05-1.4.13-3.17.22-5.49a29.78,29.78,0,0,0-18.57,7.27c.12-2.95.22-5.49.33-8.39-6.63.64-11.17,4.59-16,8.83-.72-2.48-1.19-4.61-1.91-7.09-6.89,2-11.73,6.9-15.46,12.52-.68-1.83-1.12-3-1.72-4.67-6.83,2.47-11.41,7.55-15.92,12.82L212.67,177c-4.32.52-7.41,3.76-10.43,6.71-.63.63-1.74,1.5-2.24,1.29-2.48-1.06-.63-2.66-5.62,1.69-2.8,2.43-5.26,5.19-7.89,7.8-1.73-.2-3.84-.35-4.88.64-3.23,3.1-6.06,6.62-9,10-.49.56-.9,1.2-1.48,2-1.59-1.84-3.32-2.31-4.76-.6-2.37,2.83-4.48,5.87-6.71,8.81a7.39,7.39,0,0,1-1.48,1.66c-1.28.86-2.9,1.32-3.93,2.38l-.12.13a12,12,0,0,0,1.92-3.34c1-3.12.41-2.71,2.07-5.3s5.31-4.78,6.53-7.6c.51-1.17-2.36-1.18-1.61-2.15,3.4-4.42,7-8.74,10.69-13.39l-4-2c5.45-5.12,10-10.56,12.9-17.23l-3.88-2.27c.52-.85.91-1.56,1.37-2.21,2.62-3.71,5.48-7.28,7.8-11.16a14,14,0,0,0,2.16-5.14c-.36-.08-2.1-.57-2.45-.65,3.25-4,8.18-6.87,8.59-12.84L190.93,132c4.86-6.5,11.17-11.34,11.9-19.91l-5.58-1.67c4.3-6.33,9.28-11.29,10.53-19.71l-8.68-2.58c5.18-5.49,7.14-13.22,7.29-21-2.36-.06-4.2,0-6.36,0,2.84-4.61,5.18-8.66,5-14-2.68.2-5,.41-7.5.59,2.28-9.7,3.21-13.67,3.87-17.63-1.12.12-4.08-1.06-5-1L200.17,0A216.43,216.43,0,0,0,181,31l-4.12-2.64c-2.91,6.17-5.67,12-8.45,17.87l-5.07-4.14A35.5,35.5,0,0,0,157,65.05l-7.78-6.31c-4.13,6.78-3.6,13.93-3,21.54-2.87-1.08-5.32-1.91-8.2-3-3,8-1.64,15.59.83,23.94l-5.68-1.7c-2.46,8.06-.76,15.6,1,23.75l-3.87-1.15c-2.75,5-1.73,9.82-1.06,14.81.14,1,.17,2.76-.39,3.09-2.78,1.61-3-1.29-2.41,6.59.32,4.4,1.2,8.73,1.81,13.11-1.44,1.5-3.08,3.41-2.88,5.11.65,5.3,2,10.51,3.08,15.76.18.87.49,1.71.82,2.82-2.9.2-4.58,1.52-4,4.11,1,4.28,2.4,8.47,3.6,12.7a8.24,8.24,0,0,1,.52,2.6c-.08,1.83-.81,3.71-.53,5.46.76,4.78,1.61,9.59,2.56,14.36l-.14,0q-1.22-5.37-2.62-10.68c-.38-1.43-1.57-2.63-2.26-4a7.13,7.13,0,0,1-.48-2.18c-.51-3.65-.86-7.34-1.55-11-.41-2.2-2.15-2.63-4.44-1.8-.13-1-.17-1.72-.33-2.45-.94-4.39-1.68-8.85-3-13.13-.42-1.37-2.33-2.27-3.94-2.94-1-3.56-1.81-7.18-3.06-10.67-2.23-6.23-1.4-3.93-4.08-4.22-.54-.06-1.08-1.36-1.33-2.22-1.18-4-2.29-8.39-5.81-11l-2.57,2.2c-1.35-6.81-2.86-13.48-7.61-19l-3.79,3.23c-.5-6.73-2.32-13.36-7.36-18.48-1.84,1.81-3.29,3.44-5.13,5.24-2.11-6-4.14-11.7-9.6-15.51l-3.83,7.48A29.76,29.76,0,0,0,45.92,96.16c-1.05,2.07-1.85,3.65-2.49,4.89L30.89,90.22l-2.27,3.42A182.61,182.61,0,0,0,3.34,76.36l14.81,25.71c-.72.23-2.59,2.15-3.49,2.43,1.85,2.81,3.93,5.55,9,12.22l-5.94,2.11c1.67,4.13,4.87,6.47,8.61,9-1.63.78-3,1.41-4.8,2.26,2.74,5.89,6.71,11,12.8,13.73l-5.77,4.93c3.55,5.72,9.23,8,14.63,11.38l-3.71,3.17c3.2,6,9.91,7.86,15.85,11.19-1.12,1.17-2.2,2.23-3.33,3.4,2.34,4.45,7.1,5,11,6.94-.25.18-1.42,1.14-1.66,1.33a11.36,11.36,0,0,0,3.4,3.2c3.1,2.2,6.5,4,9.77,5.92.58.34,1.12.76,1.8,1.23L74,199.61c4.52,4.11,9.82,6.75,15.75,8.83l-2.38,2.93c4.45,2.29,8.63,4.39,12.75,6.63.9.49-1.3,1.47-.51,2.2a9.83,9.83,0,0,0,3.22,1.75c-.2.48-.36.87-.56,1.37a29,29,0,0,0-9.94-6.25l-1.07,2.21c-.48-.25-.88-.43-1.26-.65-2.13-1.26-4.2-2.66-6.41-3.75a7.46,7.46,0,0,0-2.89-.94c0,.19-.22,1.16-.25,1.36-2.3-1.6-4.09-4.15-7.36-4.11-.32,1-.59,2-.9,3-3.75-2.36-6.88-5.62-11.32-5.58-.25,1.22-.45,2.13-.66,3.1-3.59-2-6.67-4.57-11-4.82-.35,1.63-.66,3.08-1,4.83-3.46-2.63-7.6-3.32-11.81-3.06.06,1.29.14,2.28.2,3.45-2.64-1.34-5-2.44-7.84-2.11.22,1.45.42,2.7.63,4.05-5.37-.81-7.58-1.15-9.76-1.33.12.6-.4,2.27-.31,2.75L0,215A119.21,119.21,0,0,0,17.72,224l-1.25,2.35c3.48,1.31,6.77,2.56,10.09,3.8l-2,2.95a19.47,19.47,0,0,0,12.74,2.43c-1.09,1.58-2,2.94-3.09,4.51,3.88,1.94,7.74,1.33,11.85.67-.46,1.6-.94,2.94-1.41,4.56,4.49,1.28,8.85.26,12.85-1.54-.27,1.24-.44,2.06-.67,3.16,4.61,1,8.89-.19,13.2-1.54-.18.86-.31,1.48-.46,2.15,2.56,1.22,5.39.5,8.07-.08.56-.12,1.47-.22,1.68.07,1,1.44-.58,1.68,3.68,1,2.38-.37,4.69-1,7-1.56.88.71,2,1.52,2.9,1.33,2.86-.58,5.63-1.54,8.43-2.36.47-.14.91-.35,1.5-.58.24,1.57,1,2.42,2.41,2,2.28-.73,4.5-1.68,6.75-2.52a4.41,4.41,0,0,1,1.39-.4,15,15,0,0,0,3,.05l.67-.17-.1.35,1.43.42c-.89,0-1.77-.07-2.66,0-.44,0-.85.52-1.17,1-1.13,0-2.27,0-3.4.12-2,.2-1.28.12-1.57.9,0,.15-.48.22-.75.23a5.91,5.91,0,0,0-3.7.91l.46.93a12.06,12.06,0,0,0-6.22.85c.24.48.41.84.68,1.37a8.75,8.75,0,0,0-6,.81c.4.69.78,1.24,1.18,1.92-2,.18-3.8.36-5.34,1.71l1.94,1.7a9.1,9.1,0,0,0-5.53,2.61c.54.47,1,.82,1.27,1.11l-4.16,2.92c.4.45.64.71.85.93a56,56,0,0,0-7,6.24l8.77-2.49c0,.23.44.93.46,1.22,1-.34,1.95-.75,4.31-1.76.06.65.12,1.24.18,1.93a6.38,6.38,0,0,0,3.34-1.89c.11.54.19,1,.31,1.6a8.16,8.16,0,0,0,5-2.79l1,2.09c2-.63,3.09-2.15,4.49-3.51l.66,1.34c2-.51,3.08-2.37,4.52-3.89l.76,1.25c1.5-.37,2-1.74,2.89-2.74,0,.08.23.5.27.59a3.63,3.63,0,0,0,1.21-.77c.88-.76,1.66-1.64,2.49-2.47.14-.15.31-.28.5-.45l.75.89a13.61,13.61,0,0,0,3.8-4l.69.93c1-1.15,2-2.24,2.93-3.3.22-.23.34.5.62.31.66-.43,1.06-1.46,1.64-2s.5-.38,1.25-.76a1.48,1.48,0,0,0,.31-.22c-2.93,12.44-7.59,29.5-12.88,39a51.29,51.29,0,0,0,7.91-7.48c2-2.42,6.24-16.48,9.5-27.95.08,0,.15,0,.17.09.23,1.41.42,2.84.64,4.36l1.08-.39a13.7,13.7,0,0,0,1,5.45l1.11-.33c.07.25.13.45.17.65.24,1.14.41,2.31.73,3.43a3.68,3.68,0,0,0,.59,1.31l.56-.35c.17,1.32-.15,2.75.9,3.88l1.33-.63c.36,2.06.22,4.19,1.64,5.73l1.3-.76c.42,1.9.52,3.79,1.83,5.39l2-1.18a8.06,8.06,0,0,0,2.69,5.1l1.14-1.17a6.32,6.32,0,0,0,1.75,3.41c.44-.53.81-1,1.21-1.51,1.43,2.14,2,3,2.64,3.84.18-.24.92-.59,1.06-.77l6,6.88a56.69,56.69,0,0,0-2.46-9.07l1.22-.31-1.88-4.73L165,282a9.1,9.1,0,0,0-3.2-5.22l2.56-.36c-.56-2-2-3.12-3.53-4.35.7-.34,1.32-.6,2-.95a8.64,8.64,0,0,0-4.61-4l1.31-.77a11.84,11.84,0,0,0-4.73-4.12l.89-.53a5.83,5.83,0,0,0-2.59-2.79c-.22-.16-.54-.44-.51-.61.19-.8.77-.33-.81-1.6-.89-.72-1.86-1.31-2.79-2,0-.53-.1-1.18-.45-1.44l-.65-.44.41-1.36a6.72,6.72,0,0,0,1.75,1.6c1.46.8,1.3.47,2.43,1.56s1.86,3.12,3.15,4c.54.37.82-1.07,1.23-.6,1.88,2.14,3.68,4.34,5.64,6.66l1.41-1.79a27.21,27.21,0,0,0,7.34,8.14l1.52-1.72c.37.35.69.61,1,.91,1.59,1.67,3.09,3.45,4.81,5a7.15,7.15,0,0,0,2.35,1.58c.08-.17.5-1,.57-1.16,1.67,2,2.62,4.77,5.57,5.56.54-.83,1-1.61,1.57-2.43,2.76,3.07,4.75,6.8,8.74,7.89l1.38-2.62c2.71,2.75,4.84,5.8,8.7,7.14l2.15-4.08c2.45,3.24,6,4.91,9.84,5.75.27-1.17.45-2.08.7-3.15,2,1.87,3.83,3.45,6.51,3.89l.45-3.8c4.62,2.1,6.52,3,8.43,3.68.05-.57.94-1.94,1-2.39l17.2,5.33a110.64,110.64,0,0,0-13.61-12.66l1.72-1.8-8.09-6,2.57-2.13a18.07,18.07,0,0,0-10.83-5.42l3.92-3.27c-3-2.73-6.61-3.17-10.47-3.61.82-1.33,1.59-2.41,2.42-3.74-3.71-2.3-7.88-2.49-11.93-1.89.55-1.05.91-1.74,1.41-2.67-3.89-2.08-8-2.09-12.26-2l1-1.82c-2-1.74-4.71-1.82-7.27-2-.54,0-1.38-.17-1.49-.49-.53-1.54.95-1.36-3-1.85-2.24-.27-4.48-.26-6.73-.38-.61-.87-1.4-1.88-2.27-1.94-2.71-.2-5.45-.05-8.18,0-.45,0-.9.08-1.49.13.19-1.46-.3-2.43-1.66-2.39-1,0-1.94.11-2.92.2a7.09,7.09,0,0,1,2.7-.52c2.54-.19,5.88,1.16,8.38.57,1.05-.25-.4-2.19.63-2.17,4.69.06,9.36.27,14.37.45-.28-1.62-.43-2.46-.65-3.72,6.19,1.09,12.1,1.38,18.06,0-.16-1.43-.28-2.49-.42-3.75.82-.07,1.5-.17,2.17-.19,3.81-.1,7.64,0,11.42-.37a11.74,11.74,0,0,0,4.53-1.14c-.12-.28-.67-1.69-.8-2,4.31.18,8.73,2,12.95-.69-.42-1.58-.84-3-1.25-4.6,6.81,0,13.56,1.68,19.3-2-.66-1.79-1.16-3.14-1.68-4.58,6.34-.27,12.43.49,18.33-2.77l-2.63-7.12c6.66.57,12.61-1.91,17.88-5.71-1.13-1.61-2-2.84-3.08-4.32,4.52-.41,8.46-.89,11.94-3.67l-4.15-4.75c7.66-3.35,10.81-4.72,13.79-6.27C305.6,180.8,304.91,178.21,304.39,177.66Z"/></g></g></svg>